<?xml version="1.0" encoding="UTF-8"?>
<svg width="24px" height="24px" viewBox="0 0 24 24" version="1.1" xmlns="http://www.w3.org/2000/svg" xmlns:xlink="http://www.w3.org/1999/xlink">
    <title>382468A9-4D6A-43A1-BD46-A7B4EB625DB8</title>
    <g id="Standards" stroke="none" stroke-width="1" fill="none" fill-rule="evenodd">
        <g id="Style-Guide" transform="translate(-1352.000000, -599.000000)" fill="#364860">
            <path d="M1375.99998,610.97733 C1376.01221,617.588956 1370.62029,622.995353 1364.00869,623 C1361.15313,623.002031 1358.53017,622.006609 1356.46893,620.343009 C1355.93295,619.910428 1355.89288,619.107152 1356.37994,618.620087 L1356.92512,618.074908 C1357.34169,617.658343 1358.00672,617.612762 1358.46823,617.978908 C1359.98686,619.183991 1361.90874,619.903267 1363.99998,619.903267 C1368.92118,619.903267 1372.90319,615.920469 1372.90319,611.000023 C1372.90319,606.078804 1368.92041,602.09678 1363.99998,602.09678 C1361.63802,602.09678 1359.49278,603.014637 1357.89993,604.512849 L1360.35576,606.968693 C1360.8435,607.456436 1360.49807,608.290341 1359.80836,608.290341 L1352.77419,608.290341 C1352.3466,608.290341 1352,607.943743 1352,607.516146 L1352,600.481955 C1352,599.792243 1352.8339,599.446807 1353.32164,599.934502 L1355.71061,602.323474 C1357.86494,600.264648 1360.78476,599 1363.99998,599 C1370.61981,599 1375.98772,604.360333 1375.99998,610.97733 Z" id="icon-undo"></path>
        </g>
    </g>
</svg>