<?xml version="1.0" encoding="UTF-8"?>
<svg width="20px" height="20px" viewBox="0 0 20 20" version="1.1" xmlns="http://www.w3.org/2000/svg" xmlns:xlink="http://www.w3.org/1999/xlink">
    <title>6ECCC41B-7B41-44FF-A73B-48F0A94DF25E</title>
    <g id="Page-1" stroke="none" stroke-width="1" fill="none" fill-rule="evenodd">
        <g id="03-Dashboard---Good---Operator" transform="translate(-253.000000, -1696.000000)" fill="#E0E2E7" fill-rule="nonzero">
            <g id="Card-XSmall" transform="translate(40.000000, 1561.000000)">
                <path d="M222.494911,147.647946 L218.357143,151.785714 L219.826875,153.170938 C220.501875,153.845937 220.023839,155 219.069286,155 L214.069286,155 C213.477545,155 213,154.520312 213,153.928571 L213,148.928571 C213,147.974018 214.15192,147.495982 214.826875,148.170938 L216.214286,149.642857 L220.352054,145.505089 C220.630982,145.226161 221.083259,145.226161 221.362188,145.505089 L222.494911,146.637812 C222.773884,146.916741 222.773884,147.368973 222.494911,147.647946 L222.494911,147.647946 Z M223.505089,142.352054 L227.642857,138.214286 L226.173125,136.829062 C225.498125,136.154063 225.976161,135 226.930714,135 L231.930714,135 C232.522455,135 233,135.479688 233,136.071429 L233,141.071429 C233,142.025982 231.84808,142.504018 231.173125,141.829062 L229.785714,140.357143 L225.647946,144.494911 C225.369018,144.773839 224.916741,144.773839 224.637812,144.494911 L223.505089,143.362188 C223.226116,143.083259 223.226116,142.631027 223.505089,142.352054 L223.505089,142.352054 Z" id="icon-expand"></path>
            </g>
        </g>
    </g>
</svg>