<svg  viewbox="0 0 30 30" version="1.1" xmlns="http://www.w3.org/2000/svg" xmlns:xlink="http://www.w3.org/1999/xlink">
    <title>icon back arrow</title>
    <g id="Style-Guide" stroke="none" stroke-width="1" fill="none" fill-rule="evenodd">
        <g transform="translate(-1215.000000, -285.000000)" fill="#364860" fill-rule="nonzero" id="icon-back-arrow">
            <g transform="translate(1215.000000, 285.000000)" id="Back-Arrow">
                <path d="M7.34129693,15.4197952 L19.8122867,15.4197952 L16.1569966,19.0750853 C15.8191126,19.4129693 15.8191126,19.9351536 16.1569966,20.2730375 C16.4948805,20.6109215 17.0170648,20.6109215 17.3549488,20.2730375 L22.4539249,15.1740614 C22.7918089,14.8361775 22.7918089,14.3139932 22.4539249,13.9761092 L17.3242321,8.90784983 C17.1706485,8.75426621 16.9556314,8.66211604 16.7406143,8.66211604 C16.5255973,8.66211604 16.3105802,8.75426621 16.1569966,8.90784983 C15.8191126,9.24573379 15.8191126,9.76791809 16.1569966,10.105802 L19.8122867,13.7610922 L7.34129693,13.7610922 C6.88054608,13.7610922 6.51194539,14.1296928 6.51194539,14.5904437 C6.51194539,15.0511945 6.88054608,15.4197952 7.34129693,15.4197952 Z" id="Path" transform="translate(14.609642, 14.594283) scale(-1, 1) translate(-14.609642, -14.594283) "></path>
                <path d="M14.5904437,29.1808874 C22.6382253,29.1808874 29.1808874,22.6382253 29.1808874,14.5904437 C29.1808874,6.54266212 22.6382253,5.19584376e-13 14.5904437,5.19584376e-13 C6.54266212,5.19584376e-13 -4.54747351e-13,6.54266212 -4.54747351e-13,14.5904437 C-4.54747351e-13,22.6382253 6.54266212,29.1808874 14.5904437,29.1808874 Z M14.5904437,1.65870307 C21.7167235,1.65870307 27.5221843,7.46416382 27.5221843,14.5904437 C27.5221843,21.7167235 21.7167235,27.5221843 14.5904437,27.5221843 C7.46416382,27.5221843 1.65870307,21.7167235 1.65870307,14.5904437 C1.65870307,7.46416382 7.46416382,1.65870307 14.5904437,1.65870307 Z" id="Shape"></path>
            </g>
        </g>
    </g>
</svg>