<?xml version="1.0" encoding="UTF-8"?>
<svg width="21px" height="24px" viewBox="0 0 21 24" version="1.1" xmlns="http://www.w3.org/2000/svg" xmlns:xlink="http://www.w3.org/1999/xlink">
    <title>89E804EB-C607-4194-B699-43346BFCE182</title>
    <g id="Standards" stroke="none" stroke-width="1" fill="none" fill-rule="evenodd">
        <g id="Style-Guide" transform="translate(-1353.000000, -662.000000)" fill="#364860" fill-rule="nonzero">
            <g id="icon-trash" transform="translate(1353.000000, 662.000000)">
                <path d="M12.5625,19.5000005 L13.6875,19.5000005 C13.9981602,19.5000005 14.25,19.2481607 14.25,18.9375005 L14.25,8.81250051 C14.25,8.50184034 13.9981602,8.25000051 13.6875,8.25000051 L12.5625,8.25000051 C12.2518398,8.25000051 12,8.50184034 12,8.81250051 L12,18.9375005 C12,19.2481607 12.2518398,19.5000005 12.5625,19.5000005 Z M20.25,3.75000051 L16.3870312,3.75000051 L14.7932813,1.09218801 C14.3864304,0.414259955 13.6536102,-0.000376011772 12.8629687,2.55867885e-07 L8.13703125,2.55867885e-07 C7.34672393,2.55867885e-07 6.61433523,0.414546605 6.20765625,1.09218801 L4.61296875,3.75000051 L0.75,3.75000051 C0.335786438,3.75000051 0,4.08578695 0,4.50000026 L0,5.25000051 C0,5.66421407 0.335786438,6.00000026 0.75,6.00000026 L1.5,6.00000026 L1.5,21.7500005 C1.5,22.9926412 2.50735931,24.0000003 3.75,24.0000003 L17.25,24.0000003 C18.4926407,24.0000003 19.5,22.9926412 19.5,21.7500005 L19.5,6.00000026 L20.25,6.00000026 C20.6642136,6.00000026 21,5.66421407 21,5.25000051 L21,4.50000026 C21,4.08578695 20.6642136,3.75000051 20.25,3.75000051 Z M8.055,2.38640676 C8.10599268,2.30153127 8.19785972,2.24972253 8.296875,2.2499994 L12.703125,2.2499994 C12.8019733,2.24988755 12.8936244,2.30167488 12.9445313,2.38640676 L13.7629688,3.7499994 L7.23703125,3.7499994 L8.055,2.38640676 Z M17.25,21.7500005 L3.75,21.7500005 L3.75,6.00000051 L17.25,6.00000051 L17.25,21.7500005 Z M7.3125,19.5000005 L8.4375,19.5000005 C8.74816017,19.5000005 9,19.2481607 9,18.9375005 L9,8.81250051 C9,8.50184034 8.74816017,8.25000051 8.4375,8.25000051 L7.3125,8.25000051 C7.00183983,8.25000051 6.75,8.50184034 6.75,8.81250051 L6.75,18.9375005 C6.75,19.2481607 7.00183983,19.5000005 7.3125,19.5000005 Z" id="Shape-Copy-12"></path>
            </g>
        </g>
    </g>
</svg>