<?xml version="1.0" encoding="UTF-8"?>
<svg width="20px" height="20px" viewBox="0 0 20 20" version="1.1" xmlns="http://www.w3.org/2000/svg" xmlns:xlink="http://www.w3.org/1999/xlink">
    <title>6A5E4157-F187-484D-AC12-9C73AC062006</title>
    <g id="Line-Graph" stroke="none" stroke-width="1" fill="none" fill-rule="evenodd">
        <g id="Line-Graph---2-parameter" transform="translate(-1020.000000, -325.000000)" fill="#358DCA" fill-rule="nonzero">
            <g id="icon-settings" transform="translate(1020.000000, 325.000000)">
                <path d="M0.508015952,11.3981991 L2.66188848,11.7165701 C2.83836729,12.4044072 3.10994467,13.0607968 3.47510929,13.6739385 L2.178461,15.4229735 C2.0605469,15.5801827 2.07624167,15.7963634 2.21342543,15.9378487 L3.88779414,17.6082937 C4.02576267,17.7458553 4.24546014,17.7655029 4.40304714,17.6475887 L6.15211129,16.3505335 C6.76525305,16.716076 7.42123562,16.9872755 8.10907276,17.1641321 L8.42782162,19.314081 C8.45493867,19.5106142 8.62435481,19.6520995 8.81652838,19.6520995 L11.1830358,19.6520995 C11.379569,19.6520995 11.5446545,19.5106142 11.5721785,19.314081 L11.8940663,17.1641321 C12.5783576,16.9872755 13.2343111,16.716076 13.8518125,16.3505335 L15.6008476,17.6475887 C15.7576789,17.7655028 15.9738305,17.7458553 16.111799,17.6082937 L17.7861677,15.9378487 C17.9233224,15.7963634 17.9390462,15.5801827 17.8250849,15.4229735 L16.5280297,13.6739385 C16.8896194,13.0607967 17.1647427,12.4044072 17.3420352,11.7165701 L19.4915772,11.3981991 C19.6845355,11.3707042 19.8260499,11.201695 19.8260499,11.0091145 L19.8260499,8.64298495 C19.8260499,8.44648081 19.6845355,8.28139524 19.4915772,8.25387129 L17.3420352,7.93157662 C17.1647426,7.24769224 16.8896194,6.59130271 16.5280297,5.97423729 L17.8250849,4.22520224 C17.9390462,4.06796405 17.9233224,3.85181238 17.7861677,3.71425081 L16.111799,2.0398821 C15.9738305,1.90232048 15.7576789,1.88659667 15.6008476,2.0005871 L13.8518125,3.29761324 C13.2343111,2.93209986 12.5783576,2.66090029 11.8940663,2.48401462 L11.5721785,0.334065762 C11.5446545,0.141485333 11.379569,0 11.1830358,0 L8.81652838,0 C8.62435481,0 8.45493867,0.141485286 8.42782162,0.334065762 L8.10907276,2.48401462 C7.42123562,2.66090033 6.765253,2.93209986 6.15211129,3.29761324 L4.40304714,2.0005871 C4.24546019,1.88659667 4.02576267,1.90232048 3.88779414,2.0398821 L2.21342543,3.71425081 C2.07624167,3.85181243 2.0605469,4.0679641 2.178461,4.22520224 L3.47510929,5.97423729 C3.10994467,6.59130271 2.83836729,7.24769224 2.66188848,7.93157662 L0.508015952,8.25387129 C0.315028619,8.28139524 0.17395019,8.44648081 0.17395019,8.64298495 L0.17395019,11.0091145 C0.17395019,11.201695 0.315028619,11.3707042 0.508015952,11.3981991 Z M10,5.87204695 C12.1813674,5.87204695 13.9540028,7.64465319 13.9540028,9.82604971 C13.9540028,12.0034934 12.1813674,13.7800525 10,13.7800525 C7.81822567,13.7800525 6.04559033,12.0034935 6.04559033,9.82604971 C6.04559033,7.64465324 7.81822567,5.87204695 10,5.87204695 Z"></path>
            </g>
        </g>
    </g>
</svg>