<?xml version="1.0" encoding="UTF-8"?>
<svg width="13px" height="20px" viewBox="0 0 13 20" version="1.1" xmlns="http://www.w3.org/2000/svg" xmlns:xlink="http://www.w3.org/1999/xlink">
    <title>605437E8-7D77-4640-8B50-8E05D4A0977A</title>
    <g id="Line-Graph" stroke="none" stroke-width="1" fill="none" fill-rule="evenodd">
        <g id="Line-Graph---2-parameter" transform="translate(-631.000000, -325.000000)">
            <g id="Group-7" transform="translate(631.000000, 325.000000)">
                <g id="Group" transform="translate(0.000000, 0.000000)">
                    <path d="M6.44444444,3.53177778 C4.84488889,3.53177778 3.548,4.82888889 3.548,6.42822222 C3.548,8.02755556 4.84511111,9.32466667 6.44444444,9.32466667 C6.98377778,9.32466667 7.48666667,9.17466667 7.91911111,8.918 C7.91622222,8.918 7.91355556,8.91711111 7.91066667,8.91711111 C7.91466667,8.91688889 7.91866667,8.916 7.92266667,8.916 C8.198,8.752 8.44466667,8.54511111 8.65111111,8.30222222 C8.66822222,8.28222222 8.68511111,8.262 8.70155556,8.24155556 C9.10111111,7.74511111 9.34133333,7.11511111 9.34133333,6.42844444 C9.34111111,4.82888889 8.04422222,3.53177778 6.44444444,3.53177778 Z" id="Path"></path>
                    <path d="M7.91911111,8.918 C7.92022222,8.91733333 7.92133333,8.91666667 7.92244444,8.916 C7.91844444,8.91622222 7.91466667,8.91711111 7.91044444,8.91711111 C7.91355556,8.91711111 7.91622222,8.918 7.91911111,8.918 Z" id="Path" fill="#000000" fill-rule="nonzero" opacity="0.45"></path>
                    <path d="M6.44444444,0 C4.07511111,0 0.0151111111,1.07711111 0.0151111111,6.96333333 C0.0151111111,13.6904444 6.44444444,20 6.44444444,20 C6.44444444,20 12.8737778,13.6904444 12.8737778,6.96333333 C12.8737778,1.53644444 8.814,0 6.44444444,0 Z M8.70155556,8.24133333 C8.68511111,8.26177778 8.66822222,8.282 8.65111111,8.302 C8.44466667,8.54488889 8.198,8.75177778 7.92266667,8.91577778 C7.92155556,8.91644444 7.92044444,8.91711111 7.91933333,8.91777778 C7.48688889,9.17444444 6.984,9.32444444 6.44466667,9.32444444 C4.84511111,9.32444444 3.54822222,8.02733333 3.54822222,6.428 C3.54822222,4.82844444 4.84533333,3.53155556 6.44466667,3.53155556 C8.04444444,3.53155556 9.34133333,4.82866667 9.34133333,6.428 C9.34111111,7.11488889 9.10088889,7.74488889 8.70155556,8.24133333 Z" id="Shape" fill="#358DCA" fill-rule="nonzero"></path>
                </g>
            </g>
        </g>
    </g>
</svg>