<?xml version="1.0" encoding="UTF-8"?>
<svg width="28px" height="24px" viewBox="0 0 28 24" version="1.1" xmlns="http://www.w3.org/2000/svg" xmlns:xlink="http://www.w3.org/1999/xlink">
    <title>E78D9A9D-D203-4885-B36B-4515DC44B5A8</title>
    <g id="Standards" stroke="none" stroke-width="1" fill="none" fill-rule="evenodd">
        <g id="Style-Guide" transform="translate(-1160.000000, -791.000000)" fill="#364860" fill-rule="nonzero">
            <path d="M1173.89474,791 C1173.55732,791 1173.23395,791.135077 1172.99671,791.375 L1160.25658,802.491776 C1160.09522,802.610844 1160,802.799465 1160,803 C1160,803.348811 1160.28277,803.631579 1160.63158,803.631579 L1163.78947,803.631579 L1163.78947,813.736842 C1163.78947,814.434105 1164.35537,815 1165.05263,815 L1170.10526,815 C1170.80253,815 1171.36842,814.434105 1171.36842,813.736842 L1171.36842,806.157895 L1176.42105,806.157895 L1176.42105,813.736842 C1176.42105,814.434105 1176.98695,815 1177.68421,815 L1182.73684,815 C1183.43411,815 1184,814.434105 1184,813.736842 L1184,803.631579 L1187.15789,803.631579 C1187.50671,803.631579 1187.78947,803.348811 1187.78947,803 C1187.78947,802.799465 1187.69425,802.610844 1187.53289,802.491776 L1174.80016,791.382401 C1174.79771,791.379924 1174.79524,791.377457 1174.79276,791.375 C1174.55552,791.135077 1174.23215,791 1173.89474,791 Z" id="icon-home"></path>
        </g>
    </g>
</svg>