<?xml version="1.0" encoding="UTF-8"?>
<svg width="32px" height="32px" viewBox="0 0 32 32" version="1.1" xmlns="http://www.w3.org/2000/svg" xmlns:xlink="http://www.w3.org/1999/xlink">
    <title>FE5F9627-2896-45F1-B621-BEF0A5017D70</title>
    <g id="Page-1" stroke="none" stroke-width="1" fill="none" fill-rule="evenodd">
        <g id="10-Add-User---Admin" transform="translate(-1017.000000, -44.000000)" fill="#FFFFFF" fill-rule="nonzero">
            <g id="Top-Nav">
                <path d="M1048.99997,59.96977 C1049.01627,68.7852694 1041.82705,75.9937982 1033.01159,76 C1029.20417,76.0027014 1025.70689,74.6754733 1022.95857,72.4573403 C1022.24393,71.8805651 1022.19051,70.809531 1022.83993,70.1601105 L1023.56683,69.433206 C1024.12225,68.8777857 1025.00895,68.8170114 1025.62431,69.3052058 C1027.64914,70.9119828 1030.21165,71.8710167 1032.99997,71.8710167 C1039.56157,71.8710167 1044.87092,66.5606203 1044.87092,60.0000281 C1044.87092,53.4384037 1039.56054,48.1290395 1032.99997,48.1290395 C1029.85069,48.1290395 1026.99037,49.3528481 1024.86657,51.3504645 L1028.14101,54.6249219 C1028.79133,55.2752456 1028.33075,56.3871185 1027.41114,56.3871185 L1018.03226,56.3871185 C1017.46213,56.3871185 1017,55.9249887 1017,55.3548587 L1017,45.975939 C1017,45.0563244 1018.11187,44.595743 1018.76219,45.2460022 L1021.94748,48.4312981 C1024.81992,45.6861965 1028.71301,44 1032.99997,44 C1041.82641,44 1048.98362,51.1471093 1048.99997,59.96977 Z M1037.32822,65.0526176 L1037.96196,64.2377775 C1038.487,63.5627441 1038.36538,62.5899036 1037.69035,62.064935 L1035.06448,60.0225443 L1035.06448,53.2903389 C1035.06448,52.4351761 1034.37126,51.7419491 1033.5161,51.7419491 L1032.48384,51.7419491 C1031.62868,51.7419491 1030.93546,52.4351761 1030.93546,53.2903389 L1030.93546,62.0420317 L1035.15539,65.324231 C1035.83042,65.8491997 1036.80319,65.7276511 1037.32822,65.0526176 L1037.32822,65.0526176 Z" id="icon-history"></path>
            </g>
        </g>
    </g>
</svg>