<?xml version="1.0" encoding="UTF-8"?>
<svg width="25px" height="14px" viewBox="0 0 25 14" version="1.1" xmlns="http://www.w3.org/2000/svg" xmlns:xlink="http://www.w3.org/1999/xlink">
    <title>08754EE5-29E5-4C22-A4E6-7AA9C9F0E77C</title>
    <g id="Line-Graph" stroke="none" stroke-width="1" fill="none" fill-rule="evenodd">
        <g id="Line-Graph---2-parameter" transform="translate(-922.000000, -328.000000)" fill="#358DCA" fill-rule="nonzero">
            <g id="Group-12" transform="translate(756.000000, 313.000000)">
                <g id="Group" transform="translate(166.000000, 15.000000)">
                    <path d="M12.4405322,10.1111111 C14.1594367,10.1111111 15.5516433,8.71107222 15.5516433,7 C15.5516433,5.28109556 14.1594367,3.88888889 12.4405322,3.88888889 C10.7294133,3.88888889 9.32942111,5.28109556 9.32942111,7 C9.32942111,8.71107222 10.7294133,10.1111111 12.4405322,10.1111111 Z" id="Path"></path>
                    <path d="M3.58163556,10.5 C8.47388889,15.1666667 16.40723,15.1666667 21.2994367,10.5 L24.8305322,7.12442111 C24.9083411,7.05439778 24.9083411,6.93776222 24.8305322,6.86773889 L21.2994367,3.5 C16.40723,-1.16666667 8.47388889,-1.16666667 3.58163556,3.5 L0.0583255556,6.86774667 C-0.0194366667,6.93777 -0.0194366667,7.05440556 0.0583255556,7.12442889 L3.58163556,10.5 Z M12.4405322,2.33333333 C15.0227622,2.33333333 17.1071989,4.41777 17.1071989,7 C17.1071989,9.57444444 15.0227622,11.6666667 12.4405322,11.6666667 C9.86608778,11.6666667 7.77386556,9.57444444 7.77386556,7 C7.77386556,4.41777 9.86608778,2.33333333 12.4405322,2.33333333 Z" id="Shape"></path>
                </g>
            </g>
        </g>
    </g>
</svg>