<?xml version="1.0" encoding="UTF-8"?>
<svg width="20px" height="20px" viewBox="0 0 20 20" version="1.1" xmlns="http://www.w3.org/2000/svg" xmlns:xlink="http://www.w3.org/1999/xlink">
    <title>A0ECBD72-9B70-40ED-9F4B-F474A878AD48</title>
    <g id="Line-Graph" stroke="none" stroke-width="1" fill="none" fill-rule="evenodd">
        <g id="Line-Graph---2-parameter" transform="translate(-818.000000, -325.000000)" fill="#358DCA" fill-rule="nonzero">
            <g id="Group-12" transform="translate(756.000000, 313.000000)">
                <g id="Group" transform="translate(62.000000, 12.000000)">
                    <path d="M19.5774648,17.5492958 L14.8732394,12.8169014 C17.1549296,9.66197183 16.9014085,5.21126761 14.056338,2.36619718 C10.9014085,-0.788732394 5.77464789,-0.788732394 2.61971831,2.36619718 C-0.535211268,5.52112676 -0.535211268,10.6478873 2.61971831,13.8028169 C5.46478873,16.6478873 9.91549296,16.9014085 13.0704225,14.6197183 L17.8028169,19.3521127 C18.3098592,19.8591549 19.0985915,19.8591549 19.6056338,19.3521127 C20.084507,18.8450704 20.084507,18.056338 19.5774648,17.5492958 Z M3.88732394,12.5352113 C1.43661972,10.084507 1.43661972,6.08450704 3.88732394,3.63380282 C6.33802817,1.18309859 10.3380282,1.18309859 12.7887324,3.63380282 C15.2394366,6.08450704 15.2394366,10.084507 12.7887324,12.5352113 C10.3380282,14.9859155 6.33802817,14.9859155 3.88732394,12.5352113 Z" id="Shape"></path>
                    <path d="M11.5492958,7.15492958 L9.29577465,7.15492958 L9.29577465,4.90140845 C9.29577465,4.3943662 8.87323944,3.94366197 8.33802817,3.94366197 C7.83098592,3.94366197 7.38028169,4.36619718 7.38028169,4.90140845 L7.38028169,7.15492958 L5.12676056,7.15492958 C4.61971831,7.15492958 4.16901408,7.57746479 4.16901408,8.11267606 C4.16901408,8.61971831 4.5915493,9.07042254 5.12676056,9.07042254 L7.38028169,9.07042254 L7.38028169,11.3239437 C7.38028169,11.8309859 7.8028169,12.2816901 8.33802817,12.2816901 C8.84507042,12.2816901 9.29577465,11.8591549 9.29577465,11.3239437 L9.29577465,9.07042254 L11.5492958,9.07042254 C12.056338,9.07042254 12.5070423,8.64788732 12.5070423,8.11267606 C12.4788732,7.57746479 12.056338,7.15492958 11.5492958,7.15492958 Z" id="Path"></path>
                </g>
            </g>
        </g>
    </g>
</svg>