<?xml version="1.0" encoding="UTF-8"?>
<svg width="27px" height="31px" viewBox="0 0 27 31" version="1.1" xmlns="http://www.w3.org/2000/svg" xmlns:xlink="http://www.w3.org/1999/xlink">
    <title>247371C2-2C6A-4310-B065-F09ED2546830</title>
    <g id="Page-1" stroke="none" stroke-width="1" fill="none" fill-rule="evenodd">
        <g id="Home-HR-not-qualified-not-at-temp" transform="translate(-308.000000, -1660.000000)" fill="#A0B7CE" fill-rule="nonzero">
            <g id="Group-3-Copy" transform="translate(294.000000, 1608.000000)">
                <g id="Group" transform="translate(13.999691, 52.000000)">
                    <path d="M0.288758586,0.000292856954 C0.118915137,0.0327002309 -0.00293709222,0.182672205 5.38755837e-05,0.35555295 L5.38755837e-05,30.1974008 C5.38755837e-05,30.3935974 0.159173248,30.5526608 0.355369854,30.5526608 L8.88161208,30.5526608 C9.07780869,30.5526608 9.23685256,30.3935974 9.23687218,30.1974008 L9.23687218,24.0580623 L14.2993285,22.7258369 C14.3578684,22.7099828 14.4113755,22.6794073 14.4547548,22.6370219 L26.5558017,10.902337 C26.8570395,10.6103061 27.0034166,10.2193494 26.9999395,9.83655668 C26.9964663,9.46683039 26.8565365,9.09756595 26.5780055,8.81518391 L22.8699782,5.0516473 C22.5899082,4.76770567 22.213416,4.62170088 21.8486055,4.61867406 C21.4675965,4.61547672 21.0833596,4.76935053 20.7939271,5.06274918 L9.23687218,16.897351 L9.23687218,0.35555295 C9.23685256,0.159356344 9.07780869,0.000312473672 8.88161208,0.000292856954 L0.355369854,0.000292856954 C0.34427408,-9.76189847e-05 0.333159994,-9.76189847e-05 0.32206422,0.000292856954 C0.310968446,-9.76189847e-05 0.29985436,-9.76189847e-05 0.288758586,0.000292856954 Z M0.710629947,0.710813043 L8.52635199,0.710813043 L8.52635199,18.7069571 L8.52635199,18.718059 L7.1164135,24.0691641 C7.08488722,24.1909968 7.12016145,24.3204169 7.20914771,24.4094032 C7.29813397,24.4983894 7.42755404,24.5336637 7.54938673,24.5021374 L8.52635199,24.2467942 L8.52635199,29.8421407 L0.710629947,29.8421407 L0.710629947,24.5132393 L4.61849097,24.5132393 C4.74661052,24.5150512 4.8657809,24.4477381 4.93036944,24.3370754 C4.99495798,24.2264128 4.99495798,24.0895456 4.93036944,23.9788829 C4.8657809,23.8682203 4.74661052,23.8009071 4.61849097,23.8027191 L0.710629947,23.8027191 L0.710629947,18.4738177 L4.61849097,18.4738177 C4.74661052,18.4756296 4.8657809,18.4083165 4.93036944,18.2976539 C4.99495798,18.1869912 4.99495798,18.050124 4.93036944,17.9394613 C4.8657809,17.8287987 4.74661052,17.7614856 4.61849097,17.7632975 L0.710629947,17.7632975 L0.710629947,12.4343961 L4.61849097,12.4343961 C4.74661052,12.436208 4.8657809,12.3688949 4.93036944,12.2582323 C4.99495798,12.1475696 4.99495798,12.0107024 4.93036944,11.9000398 C4.8657809,11.7893771 4.74661052,11.722064 4.61849097,11.7238759 L0.710629947,11.7238759 L0.710629947,6.39497453 L4.61849097,6.39497453 C4.74661052,6.39678646 4.8657809,6.32947334 4.93036944,6.21881069 C4.99495798,6.10814804 4.99495798,5.97128083 4.93036944,5.86061818 C4.8657809,5.74995553 4.74661052,5.68264241 4.61849097,5.68445434 L0.710629947,5.68445434 L0.710629947,0.710813043 Z M21.8486055,5.32916372 C22.0393713,5.33061529 22.2146719,5.39351054 22.3592919,5.54012993 L26.0673191,9.30366654 C26.2135903,9.45195921 26.287569,9.6420873 26.2893914,9.83655668 C26.291204,10.0379394 26.2193661,10.2442532 26.0673191,10.3916506 L24.1355923,12.2567661 L19.3950905,7.5162642 L21.3046135,5.55123181 C21.4586173,5.39511631 21.6540519,5.32751387 21.8486055,5.32916372 Z M18.895506,8.02695058 L20.1056106,9.22595339 L10.8355426,18.4960214 L9.73645668,17.3969355 L18.895506,8.02695058 Z M20.6051951,9.7255379 L21.8819111,11.0022539 L12.6118431,20.2723219 L11.3351271,19.0067078 L20.6051951,9.7255379 Z M22.3814956,11.5129402 L23.6360078,12.7563506 L14.2105135,21.8820942 L13.1114276,20.7830083 L22.3814956,11.5129402 Z M9.4256041,18.085252 L13.522197,22.1929468 L7.96015622,23.6583947 L9.4256041,18.085252 Z" id="Shape"></path>
                </g>
            </g>
        </g>
    </g>
</svg>