<?xml version="1.0" encoding="UTF-8"?>
<svg width="24px" height="16px" viewBox="0 0 24 16" version="1.1" xmlns="http://www.w3.org/2000/svg" xmlns:xlink="http://www.w3.org/1999/xlink">
    <title>china</title>
    <g id="Components" stroke="none" stroke-width="1" fill="none" fill-rule="evenodd">
        <g id="Style-Guide-Copy" transform="translate(-1237.000000, -555.000000)" fill-rule="nonzero">
            <g id="china" transform="translate(1237.000000, 555.000000)">
                <path d="M23.5861875,15.7371094 L0.4138125,15.7371094 C0.185296875,15.7371094 0,15.5518125 0,15.3232969 L0,0.42675 C0,0.198234375 0.185296875,0.0129375 0.4138125,0.0129375 L23.5862344,0.0129375 C23.81475,0.0129375 24.0000469,0.198234375 24.0000469,0.42675 L24.0000469,15.3232969 C24.0000469,15.5518594 23.8147031,15.7371094 23.5861875,15.7371094 Z" id="Path" fill="#FF4B55"></path>
                <g id="Group" transform="translate(1.828125, 1.171875)" fill="#FFE15A">
                    <path d="M2.15657812,1.29998438 L2.55107812,2.48282813 L3.79795312,2.49248438 C3.95939062,2.49370313 4.02632812,2.69976563 3.8964375,2.795625 L2.89340625,3.53629688 L3.26948437,4.72514062 C3.31814062,4.87907812 3.14292187,5.00634375 3.01157812,4.9125 L1.99720312,4.18739063 L0.982828125,4.91245313 C0.851484375,5.00634375 0.676265625,4.87898438 0.724921875,4.72509375 L1.101,3.53625 L0.09796875,2.795625 C-0.031921875,2.69971875 0.035015625,2.49370313 0.196453125,2.49248438 L1.44332812,2.48282813 L1.83782812,1.29998438 C1.88892187,1.14679688 2.10553125,1.14679688 2.15657812,1.29998438 Z" id="Path"></path>
                    <path d="M6.68432812,1.59145312 L6.96721875,1.97723437 L7.42373437,1.83445312 C7.48284375,1.81598437 7.53145312,1.88339063 7.49526562,1.93359375 L7.21579687,2.32176563 L7.49264062,2.7118125 C7.5285,2.76229688 7.47942187,2.829375 7.42045312,2.81048437 L6.964875,2.66465625 L6.67945313,3.04851563 C6.64251562,3.09820313 6.56353125,3.07223437 6.56329688,3.01035938 L6.5611875,2.532 L6.10790625,2.37914062 C6.04926563,2.3593125 6.0495,2.27625 6.10832813,2.25684375 L6.56254688,2.10703125 L6.56789063,1.62871875 C6.56854687,1.56689062 6.64771875,1.54153125 6.68432812,1.59145312 Z" id="Path"></path>
                    <path d="M4.96204687,0.441609375 L5.43759375,0.493265625 L5.64046875,0.06009375 C5.66676563,0.00403125 5.74926562,0.013640625 5.76192188,0.07425 L5.85970313,0.5424375 L6.33435938,0.6015 C6.3958125,0.609140625 6.41217188,0.690609375 6.35840625,0.72140625 L5.94332813,0.9590625 L6.03384375,1.42875 C6.0455625,1.48959375 5.97314063,1.53028125 5.92725,1.48870313 L5.57292188,1.167375 L5.15423438,1.3985625 C5.10004688,1.42851563 5.038875,1.37217188 5.06428125,1.3156875 L5.26035938,0.879375 L4.91104688,0.5525625 C4.86585937,0.51046875 4.9005,0.434953125 4.96204687,0.441609375 Z" id="Path"></path>
                    <path d="M5.71382813,5.07721875 L5.4309375,5.463 L4.97442187,5.32021875 C4.9153125,5.30175 4.86670312,5.36915625 4.90289062,5.41935937 L5.18235937,5.80753125 L4.90551562,6.19757812 C4.86965625,6.2480625 4.91873437,6.31514063 4.97770312,6.29625 L5.43328125,6.15042188 L5.71870312,6.53428125 C5.75564062,6.58396875 5.834625,6.558 5.83485937,6.496125 L5.83696875,6.01776562 L6.29025,5.86490625 C6.3489375,5.84507812 6.34865625,5.76201563 6.28982812,5.74260937 L5.83560937,5.59279687 L5.83026562,5.11448437 C5.82951562,5.05270312 5.7504375,5.02725 5.71382813,5.07721875 Z" id="Path"></path>
                    <path d="M7.43601562,3.99670313 L6.96046875,4.04835938 L6.75759375,3.6151875 C6.73129687,3.559125 6.64879687,3.56873438 6.63614062,3.62934375 L6.5383125,4.09753125 L6.06365625,4.15659375 C6.00220312,4.16423438 5.98584375,4.24570313 6.03960937,4.2765 L6.4546875,4.51415625 L6.36417187,4.98384375 C6.35245312,5.0446875 6.424875,5.085375 6.47076562,5.04379688 L6.82509375,4.72246875 L7.24378125,4.95365625 C7.29796875,4.98360938 7.35914062,4.92726563 7.33373437,4.87078125 L7.13765625,4.43446875 L7.48696875,4.10765625 C7.53229687,4.0655625 7.49765625,3.99004688 7.43601562,3.99670313 Z" id="Path"></path>
                </g>
            </g>
        </g>
    </g>
</svg>