<?xml version="1.0" encoding="UTF-8"?>
<svg width="24px" height="16px" viewBox="0 0 24 16" version="1.1" xmlns="http://www.w3.org/2000/svg" xmlns:xlink="http://www.w3.org/1999/xlink">
    <title>czech-republic</title>
    <g id="Components" stroke="none" stroke-width="1" fill="none" fill-rule="evenodd">
        <g id="Style-Guide-Copy" transform="translate(-1237.000000, -369.000000)" fill-rule="nonzero">
            <g id="czech-republic" transform="translate(1237.000000, 369.000000)">
                <path d="M0.152625,15.6370312 L12,7.875 L0.152625,0.11296875 C0.061453125,0.188859375 0,0.298828125 0,0.426703125 L0,15.32325 C0,15.4511719 0.061453125,15.5611406 0.152625,15.6370312 Z" id="Path" fill="#41479B"></path>
                <path d="M0.152625,15.6370312 C0.22434375,15.69675 0.313171875,15.7370625 0.413765625,15.7370625 L23.5861875,15.7370625 C23.8147031,15.7370625 24,15.5517656 24,15.32325 L24,7.875 L12,7.875 L0.152625,15.6370312 Z" id="Path" fill="#FF4B55"></path>
                <path d="M0.152625,0.11296875 C0.22434375,0.05325 0.313171875,0.0129375 0.413765625,0.0129375 L23.5861875,0.0129375 C23.8147031,0.0129375 24,0.198234375 24,0.42675 L24,7.875 L12,7.875 L0.152625,0.11296875 Z" id="Path" fill="#F5F5F5"></path>
            </g>
        </g>
    </g>
</svg>