<?xml version="1.0" encoding="UTF-8"?>
<svg width="24px" height="16px" viewBox="0 0 24 16" version="1.1" xmlns="http://www.w3.org/2000/svg" xmlns:xlink="http://www.w3.org/1999/xlink">
    <title>finland</title>
    <g id="Components" stroke="none" stroke-width="1" fill="none" fill-rule="evenodd">
        <g id="Style-Guide-Copy" transform="translate(-1237.000000, -710.000000)" fill-rule="nonzero">
            <g id="finland" transform="translate(1237.000000, 710.000000)">
                <path d="M23.5861875,15.7371094 L0.4138125,15.7371094 C0.185296875,15.7371094 0,15.5518125 0,15.3232969 L0,0.42675 C0,0.198234375 0.185296875,0.0129375 0.4138125,0.0129375 L23.5862344,0.0129375 C23.81475,0.0129375 24.0000469,0.198234375 24.0000469,0.42675 L24.0000469,15.3232969 C24.0000469,15.5518594 23.8147031,15.7371094 23.5861875,15.7371094 Z" id="Path" fill="#F5F5F5"></path>
                <polygon id="Path" fill="#41479B" points="24 6.63365625 9.93103125 6.63365625 9.93103125 0.012984375 7.44829687 0.012984375 7.44829687 6.63365625 0 6.63365625 0 9.1164375 7.44829687 9.1164375 7.44829687 15.7371094 9.93103125 15.7371094 9.93103125 9.1164375 24 9.1164375"></polygon>
            </g>
        </g>
    </g>
</svg>