<?xml version="1.0" encoding="UTF-8"?>
<svg width="24px" height="16px" viewBox="0 0 24 16" version="1.1" xmlns="http://www.w3.org/2000/svg" xmlns:xlink="http://www.w3.org/1999/xlink">
    <title>portugal</title>
    <g id="Components" stroke="none" stroke-width="1" fill="none" fill-rule="evenodd">
        <g id="Style-Guide-Copy" transform="translate(-1237.000000, -493.000000)" fill-rule="nonzero">
            <g id="portugal" transform="translate(1237.000000, 493.000000)">
                <path d="M23.5861875,15.7371094 L0.4138125,15.7371094 C0.185296875,15.7371094 0,15.5518125 0,15.3232969 L0,0.42675 C0,0.198234375 0.185296875,0.0129375 0.4138125,0.0129375 L23.5862344,0.0129375 C23.81475,0.0129375 24.0000469,0.198234375 24.0000469,0.42675 L24.0000469,15.3232969 C24.0000469,15.5518594 23.8147031,15.7371094 23.5861875,15.7371094 Z" id="Path" fill="#FF4B55"></path>
                <path d="M8.6896875,0.012984375 L0.4138125,0.012984375 C0.185296875,0.012984375 0,0.198234375 0,0.42675 L0,15.3232969 C0,15.5518125 0.185296875,15.7371094 0.4138125,15.7371094 L8.6896875,15.7371094 L8.6896875,0.012984375 L8.6896875,0.012984375 Z" id="Path" fill="#73AF00"></path>
                <circle id="Oval" fill="#FFE15A" cx="8.69296875" cy="7.87504687" r="3.7209375"></circle>
                <path d="M9.9343125,6.63365625 L9.9343125,8.2888125 C9.9343125,8.97332812 9.3774375,9.53020312 8.69292187,9.53020312 C8.00840625,9.53020312 7.45153125,8.97332812 7.45153125,8.2888125 L7.45153125,6.63365625 L9.9343125,6.63365625 M10.3480781,5.80607812 L7.03771875,5.80607812 C6.80920312,5.80607812 6.62390625,5.991375 6.62390625,6.21989062 L6.62390625,8.28885937 C6.62390625,9.43148437 7.55025,10.3578281 8.692875,10.3578281 C9.8355,10.3578281 10.7618438,9.43148437 10.7618438,8.28885937 L10.7618438,6.21989062 C10.7618906,5.991375 10.5765937,5.80607812 10.3480781,5.80607812 L10.3480781,5.80607812 Z" id="Shape" fill="#FF4B55"></path>
                <path d="M9.9343125,6.63365625 L9.9343125,8.2888125 C9.9343125,8.97332812 9.3774375,9.53020312 8.69292187,9.53020312 C8.00840625,9.53020312 7.45153125,8.97332812 7.45153125,8.2888125 L7.45153125,6.63365625 L9.9343125,6.63365625" id="Path" fill="#F5F5F5"></path>
                <g id="Group" transform="translate(6.796875, 6.000000)" fill="#FFE15A">
                    <circle id="Oval" cx="0.23765625" cy="0.219890625" r="1"></circle>
                    <circle id="Oval" cx="3.54796875" cy="0.219890625" r="1"></circle>
                    <circle id="Oval" cx="0.23765625" cy="1.87504687" r="1"></circle>
                    <circle id="Oval" cx="3.54796875" cy="1.87504687" r="1"></circle>
                    <circle id="Oval" cx="1.8928125" cy="0.219890625" r="1"></circle>
                    <circle id="Oval" cx="3.135" cy="3.40082812" r="1"></circle>
                    <circle id="Oval" cx="0.675" cy="3.40082812" r="1"></circle>
                </g>
                <g id="Group" transform="translate(7.687500, 6.890625)" fill="#41479B">
                    <path d="M1.27260938,0.879515625 L1.27260938,1.23585938 C1.27260938,1.38323438 1.15270313,1.50314063 1.00532813,1.50314063 C0.857953125,1.50314063 0.738046875,1.38323438 0.738046875,1.23585938 L0.738046875,0.879515625 L1.27260938,0.879515625" id="Path"></path>
                    <path d="M1.27260938,0.034734375 L1.27260938,0.391078125 C1.27260938,0.538453125 1.15270313,0.658359375 1.00532813,0.658359375 C0.857953125,0.658359375 0.738046875,0.538453125 0.738046875,0.391078125 L0.738046875,0.034734375 L1.27260938,0.034734375" id="Path"></path>
                    <path d="M1.27260938,1.73296875 L1.27260938,2.0893125 C1.27260938,2.2366875 1.15270313,2.35659375 1.00532813,2.35659375 C0.857953125,2.35659375 0.738046875,2.2366875 0.738046875,2.0893125 L0.738046875,1.73296875 L1.27260938,1.73296875" id="Path"></path>
                    <path d="M1.99246875,0.879515625 L1.99246875,1.23585938 C1.99246875,1.38323438 1.8725625,1.50314063 1.7251875,1.50314063 C1.5778125,1.50314063 1.45790625,1.38323438 1.45790625,1.23585938 L1.45790625,0.879515625 L1.99246875,0.879515625" id="Path"></path>
                    <path d="M0.55284375,0.879515625 L0.55284375,1.23585938 C0.55284375,1.38323438 0.4329375,1.50314063 0.2855625,1.50314063 C0.1381875,1.50314063 0.01828125,1.38323438 0.01828125,1.23585938 L0.01828125,0.879515625 L0.55284375,0.879515625" id="Path"></path>
                </g>
            </g>
        </g>
    </g>
</svg>