<?xml version="1.0" encoding="UTF-8"?>
<svg width="24px" height="16px" viewBox="0 0 24 16" version="1.1" xmlns="http://www.w3.org/2000/svg" xmlns:xlink="http://www.w3.org/1999/xlink">
    <title>south-korea</title>
    <g id="Components" stroke="none" stroke-width="1" fill="none" fill-rule="evenodd">
        <g id="Style-Guide-Copy" transform="translate(-1237.000000, -586.000000)" fill-rule="nonzero">
            <g id="south-korea" transform="translate(1237.000000, 586.000000)">
                <path d="M23.5861875,15.7371094 L0.4138125,15.7371094 C0.185296875,15.7371094 0,15.5518125 0,15.3232969 L0,0.42675 C0,0.198234375 0.185296875,0.0129375 0.4138125,0.0129375 L23.5862344,0.0129375 C23.81475,0.0129375 24.0000469,0.198234375 24.0000469,0.42675 L24.0000469,15.3232969 C24.0000469,15.5518594 23.8147031,15.7371094 23.5861875,15.7371094 Z" id="Path" fill="#F5F5F5"></path>
                <path d="M14.2972969,4.43123437 C12.3959062,3.1636875 9.82776562,3.68189062 8.56101562,5.57995312 C7.925625,6.52734375 8.18390625,7.81467187 9.13453125,8.44846875 C10.0844531,9.08226562 11.3676562,8.824875 12.0014531,7.87415625 C12.63525,6.92348437 13.9192969,6.66928125 14.8691719,7.29975 C15.8206406,7.93354687 16.0765313,9.220875 15.4418437,10.1682656 C16.7094375,8.26701562 16.1970469,5.69882812 14.2972969,4.43123437" id="Path" fill="#FF4B55"></path>
                <path d="M8.56096875,5.58 C7.92557812,6.52739062 8.18385938,7.81471875 9.13448437,8.44851562 C10.0844062,9.0823125 11.3676094,8.82492187 12.0014062,7.87420312 C12.6352031,6.92353125 13.91925,6.66932812 14.869125,7.29979687 C15.8205938,7.93359375 16.0764844,9.22092188 15.4417969,10.1683125 C14.1758906,12.0729375 11.6085937,12.5846719 9.70720312,11.3170781 C7.80754687,10.0495781 7.29342187,7.48139062 8.56096875,5.58" id="Path" fill="#41479B"></path>
                <g id="Group" transform="translate(4.031250, 1.687500)" fill="#464655">
                    <path d="M12.37125,1.18082813 L13.1228906,2.31060938 C13.1860313,2.40553125 13.1604844,2.5336875 13.06575,2.59710938 L12.8751563,2.72475 C12.7800469,2.78840625 12.6513281,2.7628125 12.5878594,2.6675625 L11.8352813,1.5380625 C11.7719531,1.44304688 11.7976406,1.31465625 11.8926094,1.25123438 L12.0841406,1.12335938 C12.1792969,1.05984375 12.307875,1.08557812 12.37125,1.18082813 Z" id="Path"></path>
                    <path d="M13.5309375,2.92275 L14.2850156,4.05182813 C14.3486719,4.14717187 14.3226563,4.27617187 14.2270313,4.33935937 L14.0355938,4.465875 C13.940625,4.5286875 13.81275,4.50285937 13.7495156,4.40821875 L12.9958594,3.2803125 C12.9323906,3.18534375 12.9578906,3.05685937 13.0529063,2.99334375 L13.243875,2.86565625 C13.3388906,2.80214062 13.4674219,2.8276875 13.5309375,2.92275 Z" id="Path"></path>
                    <path d="M13.1760469,0.643734375 L15.0899063,3.51590625 C15.1532812,3.61096875 15.1275469,3.73940625 15.0324844,3.80278125 L14.8402031,3.9309375 C14.7451406,3.99435938 14.6166563,3.968625 14.5532813,3.8735625 L12.6387656,1.00157813 C12.5753437,0.90646875 12.601125,0.7779375 12.6962812,0.714609375 L12.8891719,0.58621875 C12.9842812,0.522984375 13.1126719,0.548671875 13.1760469,0.643734375 Z" id="Path"></path>
                    <path d="M13.9786406,0.107484375 L14.7319219,1.23946875 C14.7953906,1.3348125 14.7693281,1.46353125 14.67375,1.52667188 L14.4822188,1.65323437 C14.3871563,1.71604687 14.2592344,1.69021875 14.1960469,1.59539062 L13.4422031,0.46490625 C13.3787813,0.36984375 13.4045156,0.241359375 13.4995781,0.177984375 L13.6917188,0.049921875 C13.7867344,-0.0135 13.9152656,0.012234375 13.9786406,0.107484375 Z" id="Path"></path>
                    <path d="M15.1390781,1.8530625 L15.8911875,2.98270313 C15.9544688,3.07767188 15.9288281,3.20592187 15.834,3.26934375 L15.6429844,3.39703125 C15.547875,3.46064062 15.4191562,3.43495312 15.3557812,3.33970312 L14.6036719,2.2100625 C14.5404375,2.11509375 14.5660312,1.98684375 14.6608594,1.92342187 L14.851875,1.79573438 C14.9469375,1.732125 15.0756562,1.75776563 15.1390781,1.8530625 Z" id="Path"></path>
                    <path d="M2.19004688,7.96795313 L4.10367188,10.8370312 C4.16704688,10.9320469 4.14145313,11.0604844 4.04639063,11.1239063 L3.85476563,11.251875 C3.75970313,11.3153438 3.63121875,11.2897031 3.56775,11.1945938 L1.654125,8.32551563 C1.59075,8.2305 1.61634375,8.1020625 1.71140625,8.03864063 L1.90303125,7.91067188 C1.99809375,7.84720312 2.126625,7.87289062 2.19004688,7.96795313 Z" id="Path"></path>
                    <path d="M1.38665625,8.504625 L2.13796875,9.63154687 C2.20129687,9.72651563 2.17575,9.85471875 2.08092187,9.91823437 L1.89032812,10.0458281 C1.7953125,10.1094375 1.6666875,10.0838906 1.60317187,9.98878125 L0.85096875,8.86214062 C0.7875,8.767125 0.81309375,8.63864062 0.90815625,8.57517187 L1.0996875,8.44729687 C1.19470312,8.383875 1.32323437,8.40951563 1.38665625,8.504625 Z" id="Path"></path>
                    <path d="M2.54770312,10.2471563 L3.29985938,11.3769375 C3.36314062,11.4719062 3.3375,11.6002031 3.24257812,11.6635781 L3.05142187,11.7913594 C2.9563125,11.8549219 2.82773437,11.8292813 2.76426562,11.734125 L2.01164062,10.6045781 C1.9483125,10.5095625 1.974,10.3811719 2.06892187,10.31775 L2.26054687,10.1897812 C2.35570312,10.1262188 2.48428125,10.1519531 2.54770312,10.2471563 Z" id="Path"></path>
                    <path d="M0.58321875,9.04110938 L2.495625,11.9103281 C2.55895313,12.0052969 2.5333125,12.1336406 2.43848438,12.1971094 L2.247375,12.3248906 C2.1523125,12.3884531 2.02373438,12.3628594 1.96026563,12.2677031 L0.046734375,9.39885937 C-0.0166875,9.30379687 0.009046875,9.1753125 0.104109375,9.11189062 L0.296390625,8.98373437 C0.391359375,8.92035938 0.51984375,8.94604688 0.58321875,9.04110938 Z" id="Path"></path>
                    <path d="M1.65440625,4.05201563 L3.56775,1.18059375 C3.63117188,1.0854375 3.75970313,1.05975 3.8548125,1.12321875 L4.04639062,1.25114063 C4.14140625,1.3145625 4.167,1.443 4.10367187,1.53801563 L2.18957812,4.40784375 C2.12629687,4.50267188 1.99828125,4.52845313 1.90326562,4.46554688 L1.7124375,4.33921875 C1.61690625,4.27603125 1.5909375,4.14726563 1.65440625,4.05201563 Z" id="Path"></path>
                    <path d="M0.850640625,3.51609375 L2.7643125,0.644109375 C2.82773438,0.548953125 2.95635938,0.523265625 3.05146875,0.586828125 L3.24257813,0.714609375 C3.33745313,0.77803125 3.36304687,0.90628125 3.29976563,1.00129687 L1.38660938,3.87342187 C1.3231875,3.96857812 1.19465625,3.9943125 1.09954688,3.93079687 L0.907921875,3.802875 C0.812953125,3.7395 0.7873125,3.61110937 0.850640625,3.51609375 Z" id="Path"></path>
                    <path d="M0.04640625,2.98246875 L1.96026562,0.107625 C2.0236875,0.012421875 2.15235938,-0.0133125 2.24746875,0.05025 L2.43857813,0.17803125 C2.53345313,0.241453125 2.55904687,0.369609375 2.49585938,0.464625 L0.583171875,3.33989063 C0.51984375,3.43509375 0.391265625,3.460875 0.29615625,3.39745313 L0.103875,3.26929688 C0.008859375,3.20592188 -0.016828125,3.07753125 0.04640625,2.98246875 Z" id="Path"></path>
                    <path d="M11.8356094,10.8370312 L12.5878125,9.71039062 C12.6513281,9.61528125 12.7799531,9.58973437 12.8749688,9.65334375 L13.0655625,9.78098437 C13.1603906,9.84445312 13.1858906,9.97270312 13.1226094,10.0676719 L12.3712969,11.1945469 C12.307875,11.2896563 12.1793437,11.3153438 12.0842812,11.251875 L11.89275,11.124 C11.7977344,11.0605313 11.7721406,10.9320937 11.8356094,10.8370312 Z" id="Path"></path>
                    <path d="M12.9957656,9.10040625 L13.7491875,7.9681875 C13.8125625,7.87303125 13.9410938,7.84725 14.0362031,7.91067188 L14.2282031,8.03864063 C14.3233125,8.1020625 14.349,8.23064063 14.2855313,8.32570313 L13.5305156,9.45614063 C13.4671875,9.55096875 13.3391719,9.57665625 13.2441563,9.51365625 L13.05375,9.38746875 C12.9583594,9.32423437 12.9323906,9.19560938 12.9957656,9.10040625 Z" id="Path"></path>
                    <path d="M12.6387188,11.3765156 L13.3913906,10.2469219 C13.4547656,10.1518125 13.58325,10.1260781 13.6783594,10.1895 L13.8707344,10.3177969 C13.96575,10.3811719 13.9914375,10.5095156 13.9281563,10.604625 L13.1759531,11.7343125 C13.112625,11.8294219 12.9842344,11.8552031 12.8890781,11.791875 L12.6961875,11.6634844 C12.601125,11.6001563 12.5753438,11.471625 12.6387188,11.3765156 Z" id="Path"></path>
                    <path d="M13.8001406,9.631125 L14.5532344,8.50415625 C14.6167031,8.40923438 14.7450469,8.38364063 14.8400625,8.44696875 L15.0323438,8.575125 C15.1274531,8.63854687 15.1531406,8.767125 15.0895781,8.8621875 L14.3365313,9.98915625 C14.2731094,10.0840781 14.1447188,10.1096719 14.04975,10.0463437 L13.8574219,9.9181875 C13.7622188,9.85485938 13.7365781,9.72623437 13.8001406,9.631125 Z" id="Path"></path>
                    <path d="M13.4423906,11.9100938 L14.1959062,10.7824688 C14.2591875,10.6878281 14.3870156,10.6620469 14.4819844,10.7248125 L14.6735156,10.851375 C14.7690937,10.9145625 14.7951562,11.0434219 14.7315937,11.1387656 L13.9786406,12.2678906 C13.9152656,12.3629531 13.7867812,12.3885938 13.6917187,12.3252656 L13.4995781,12.1972031 C13.4044687,12.1337344 13.3788281,12.0051563 13.4423906,11.9100938 Z" id="Path"></path>
                    <path d="M14.6040937,10.1704688 L15.3557344,9.04148438 C15.4191562,8.94628125 15.5478281,8.92054688 15.6429375,8.98415625 L15.8338125,9.11175 C15.9287344,9.17521875 15.9542812,9.30360938 15.8909063,9.39857813 L15.1386094,10.5260625 C15.075375,10.6209375 14.9472187,10.6466719 14.8522031,10.5836719 L14.6618906,10.4575781 C14.5665937,10.3943906 14.5406719,10.2657188 14.6040937,10.1704688 Z" id="Path"></path>
                </g>
            </g>
        </g>
    </g>
</svg>