<?xml version="1.0" encoding="UTF-8"?>
<svg width="24px" height="16px" viewBox="0 0 24 16" version="1.1" xmlns="http://www.w3.org/2000/svg" xmlns:xlink="http://www.w3.org/1999/xlink">
    <title>spain</title>
    <g id="Components" stroke="none" stroke-width="1" fill="none" fill-rule="evenodd">
        <g id="Style-Guide-Copy" transform="translate(-1237.000000, -462.000000)" fill-rule="nonzero">
            <g id="spain" transform="translate(1237.000000, 462.000000)">
                <path d="M0.4138125,15.7371094 L23.5862344,15.7371094 C23.81475,15.7371094 24.0000469,15.5518125 24.0000469,15.3232969 L24.0000469,0.42675 C24.0000469,0.198234375 23.81475,0.0129375 23.5862344,0.0129375 L0.4138125,0.0129375 C0.185296875,0.0129375 0,0.198234375 0,0.42675 L0,15.3232969 C0,15.5518594 0.185296875,15.7371094 0.4138125,15.7371094 Z" id="Path" fill="#C8414B"></path>
                <rect id="Rectangle" fill="#FFD250" x="0" y="3.32348438" width="24" height="9.10359375"></rect>
                <path d="M10.1379375,7.87504687 L10.4887969,6.29625 C10.5211406,6.15084375 10.4104688,6.0129375 10.2615,6.0129375 L10.014375,6.0129375 C9.86545313,6.0129375 9.75482813,6.15084375 9.78707813,6.29625 L10.1379375,7.87504687 Z" id="Path" fill="#C8414B"></path>
                <rect id="Rectangle" fill="#F5F5F5" x="9.72421875" y="7.04723437" width="1" height="3.51703125"></rect>
                <rect id="Rectangle" fill="#FAB446" x="9.51703125" y="6.63379687" width="1.24139062" height="1"></rect>
                <g id="Group" transform="translate(3.562500, 6.000000)" fill="#C8414B">
                    <rect id="Rectangle" x="5.1271875" y="1.87504687" width="2.0690625" height="1"></rect>
                    <polygon id="Path" points="7.19610938 3.53020312 5.95471875 3.1164375 5.95471875 2.702625 7.19610938 3.1164375"></polygon>
                    <path d="M0.36853125,1.87504687 L0.719390625,0.29625 C0.751734375,0.15084375 0.6410625,0.0129375 0.49209375,0.0129375 L0.24496875,0.0129375 C0.096046875,0.0129375 -0.014578125,0.15084375 0.017671875,0.29625 L0.36853125,1.87504687 Z" id="Path"></path>
                </g>
                <path d="M5.37932812,6.63365625 C5.1508125,6.63365625 4.96551562,6.81895312 4.96551562,7.04746875 L4.96551562,9.73710937 C4.96551562,10.2398438 5.43473437,11.1854062 7.03448437,11.1854062 C8.63423437,11.1854062 9.10345312,10.2398906 9.10345312,9.73710937 L9.10345312,7.04746875 C9.10345312,6.81895313 8.91815625,6.63365625 8.68964062,6.63365625 L5.37932812,6.63365625 L5.37932812,6.63365625 Z" id="Path" fill="#F5F5F5"></path>
                <g id="Group" transform="translate(4.921875, 6.609375)" fill="#C8414B">
                    <path d="M2.11260937,2.09325 L0.043640625,2.09325 L0.043640625,0.43809375 C0.043640625,0.209578125 0.2289375,0.02428125 0.457453125,0.02428125 L2.11260937,0.02428125 L2.11260937,2.09325 Z" id="Path"></path>
                    <path d="M2.11260937,2.09325 L4.18157812,2.09325 L4.18157812,3.12773438 C4.18157812,3.69909375 3.71845312,4.16221875 3.14709375,4.16221875 L3.14709375,4.16221875 C2.57573438,4.16221875 2.11260937,3.69909375 2.11260937,3.12773438 L2.11260937,2.09325 L2.11260937,2.09325 Z" id="Path"></path>
                </g>
                <path d="M4.96551562,8.702625 L7.03448437,8.702625 L7.03448437,9.73710938 C7.03448437,10.3084688 6.57135938,10.7715938 6,10.7715938 L6,10.7715938 C5.42864062,10.7715938 4.96551562,10.3084688 4.96551562,9.73710938 L4.96551562,8.702625 L4.96551562,8.702625 Z" id="Path" fill="#FAB446"></path>
                <g id="Group" transform="translate(5.343750, 8.671875)" fill="#C8414B">
                    <path d="M1.27692188,1.88817187 L1.27692188,0.03075 L0.863109375,0.03075 L0.863109375,2.07885937 C1.01704688,2.04764062 1.156125,1.97948437 1.27692188,1.88817187 Z" id="Path"></path>
                    <path d="M0.44934375,2.07885937 L0.44934375,0.03075 L0.03553125,0.03075 L0.03553125,1.88817187 C0.156375,1.97948437 0.295453125,2.04764062 0.44934375,2.07885937 Z" id="Path"></path>
                </g>
                <rect id="Rectangle" fill="#FFB441" x="5.379375" y="7.87504687" width="1.24139062" height="1"></rect>
                <g id="Group" transform="translate(5.343750, 7.031250)" fill="#FAB446">
                    <rect id="Rectangle" x="0.035625" y="0.015984375" width="1.24139062" height="1"></rect>
                    <rect id="Rectangle" x="0.24234375" y="0.262078125" width="1" height="1"></rect>
                </g>
                <rect id="Rectangle" fill="#F5F5F5" x="3.51703125" y="7.04723437" width="1" height="3.51703125"></rect>
                <g id="Group" transform="translate(3.281250, 6.609375)" fill="#FAB446">
                    <rect id="Rectangle" x="0.0290625" y="3.74864063" width="1.24139062" height="1"></rect>
                    <rect id="Rectangle" x="0.0290625" y="0.024421875" width="1.24139062" height="1"></rect>
                </g>
                <rect id="Rectangle" fill="#5064AA" x="3.10359375" y="10.7714531" width="1.65515625" height="1"></rect>
                <rect id="Rectangle" fill="#FAB446" x="9.72421875" y="10.3580156" width="1.24139063" height="1"></rect>
                <rect id="Rectangle" fill="#5064AA" x="9.3103125" y="10.7714531" width="1.65515625" height="1"></rect>
                <rect id="Rectangle" fill="#FAB446" x="5.79328125" y="6.21989062" width="2.48278125" height="1"></rect>
                <rect id="Rectangle" fill="#FFB441" x="6.8278125" y="4.97864062" width="1" height="1.24139063"></rect>
                <g id="Group" transform="translate(5.156250, 4.312500)" fill="#F5F5F5">
                    <path d="M1.46442188,1.28667188 C1.12214063,1.28667188 0.84375,1.00823438 0.84375,0.666 C0.84375,0.32371875 1.1221875,0.045328125 1.46442187,0.045328125 C1.80670312,0.045328125 2.08509375,0.323765625 2.08509375,0.666 C2.08514063,1.00823437 1.80670313,1.28667188 1.46442188,1.28667188 Z M1.46442188,0.45909375 C1.35028125,0.45909375 1.25751563,0.5518125 1.25751563,0.666 C1.25751563,0.780140625 1.35023438,0.87290625 1.46442188,0.87290625 C1.57860937,0.87290625 1.67132813,0.7801875 1.67132813,0.666 C1.67132813,0.551859375 1.57860937,0.45909375 1.46442188,0.45909375 Z" id="Shape"></path>
                    <path d="M2.29204687,1.28667188 C1.94976562,1.28667188 1.671375,1.00823438 1.671375,0.666 C1.671375,0.32371875 1.9498125,0.045328125 2.29204687,0.045328125 C2.63432812,0.045328125 2.91271875,0.323765625 2.91271875,0.666 C2.91271875,1.00823438 2.63428125,1.28667188 2.29204687,1.28667188 Z M2.29204687,0.45909375 C2.17790625,0.45909375 2.08514063,0.5518125 2.08514063,0.666 C2.08514063,0.780140625 2.17785938,0.87290625 2.29204687,0.87290625 C2.4061875,0.87290625 2.49895312,0.7801875 2.49895312,0.666 C2.49890625,0.551859375 2.4061875,0.45909375 2.29204687,0.45909375 Z" id="Shape"></path>
                    <path d="M3.119625,1.70048437 C2.77734375,1.70048437 2.49895312,1.42204687 2.49895312,1.0798125 C2.49895312,0.73753125 2.77739062,0.459140625 3.119625,0.459140625 C3.46190625,0.459140625 3.74029687,0.737578125 3.74029687,1.0798125 C3.74029687,1.42204687 3.46185938,1.70048437 3.119625,1.70048437 Z M3.119625,0.87290625 C3.00548437,0.87290625 2.91271875,0.965625 2.91271875,1.0798125 C2.91271875,1.19395313 3.0054375,1.28671875 3.119625,1.28671875 C3.23376562,1.28671875 3.32653125,1.194 3.32653125,1.0798125 C3.32653125,0.965625 3.23376562,0.87290625 3.119625,0.87290625 Z" id="Shape"></path>
                    <path d="M0.63684375,1.70048437 C0.2945625,1.70048437 0.016171875,1.42204687 0.016171875,1.0798125 C0.016171875,0.73753125 0.294609375,0.459140625 0.63684375,0.459140625 C0.979125,0.459140625 1.25751562,0.737578125 1.25751562,1.0798125 C1.2575625,1.42204687 0.979125,1.70048437 0.63684375,1.70048437 Z M0.63684375,0.87290625 C0.522703125,0.87290625 0.4299375,0.965625 0.4299375,1.0798125 C0.4299375,1.19395313 0.52265625,1.28671875 0.63684375,1.28671875 C0.75103125,1.28671875 0.84375,1.19395312 0.84375,1.07976563 C0.84375,0.965625 0.75103125,0.87290625 0.63684375,0.87290625 Z" id="Shape"></path>
                </g>
                <path d="M8.275875,9.53020312 L8.275875,9.73710937 C8.275875,9.85120312 8.1830625,9.94401562 8.06896875,9.94401562 C7.954875,9.94401562 7.8620625,9.85120312 7.8620625,9.73710937 L7.8620625,9.53020312 L8.275875,9.53020312 M8.68964062,9.1164375 L7.44825,9.1164375 L7.44825,9.73710937 C7.44825,10.0793906 7.7266875,10.3577812 8.06892188,10.3577812 C8.41120313,10.3577812 8.68959375,10.0793437 8.68959375,9.73710937 L8.68959375,9.1164375 L8.68964062,9.1164375 Z" id="Shape" fill="#FAB446"></path>
                <path d="M8.06896875,8.28885937 L8.06896875,8.28885937 C7.84045312,8.28885937 7.65515625,8.1035625 7.65515625,7.87504688 L7.65515625,7.46123438 C7.65515625,7.23271875 7.84045312,7.04742188 8.06896875,7.04742188 L8.06896875,7.04742188 C8.29748437,7.04742188 8.48278125,7.23271875 8.48278125,7.46123438 L8.48278125,7.87504688 C8.48278125,8.1035625 8.29748437,8.28885937 8.06896875,8.28885937 Z" id="Path" fill="#FFA0D2"></path>
                <circle id="Oval" fill="#5064AA" cx="7.03453125" cy="8.70239062" r="1"></circle>
                <rect id="Rectangle" fill="#FAB446" x="6.8278125" y="4.15082812" width="1" height="1.24139063"></rect>
                <path d="M5.79309375,6.21989062 L5.37928125,5.80607812 L5.62167187,5.5636875 C5.99634375,5.18901562 6.5045625,4.9785 7.03448438,4.9785 L7.03448438,4.9785 C7.56440625,4.9785 8.07257813,5.18901562 8.44729688,5.5636875 L8.6896875,5.80607812 L8.275875,6.21989062 L5.79309375,6.21989062 Z" id="Path" fill="#C8414B"></path>
                <g id="Group" transform="translate(6.000000, 5.578125)" fill="#FFD250">
                    <ellipse id="Oval" cx="1.03453125" cy="0.4861" rx="1" ry="1"></ellipse>
                    <ellipse id="Oval" cx="0.20671875" cy="0.4861" rx="1" ry="1"></ellipse>
                    <ellipse id="Oval" cx="1.861875" cy="0.4861" rx="1" ry="1"></ellipse>
                </g>
                <g id="Group" transform="translate(3.281250, 7.875000)" fill="#C8414B">
                    <rect id="Rectangle" x="0.0290625" y="4.6875e-05" width="2.0690625" height="1"></rect>
                    <polygon id="Path" points="0.029109375 1.65520312 1.27045312 1.2414375 1.27045312 0.827625 0.029109375 1.2414375"></polygon>
                </g>
            </g>
        </g>
    </g>
</svg>