<?xml version="1.0" encoding="UTF-8"?>
<svg width="24px" height="16px" viewBox="0 0 24 16" version="1.1" xmlns="http://www.w3.org/2000/svg" xmlns:xlink="http://www.w3.org/1999/xlink">
    <title>united-states</title>
    <g id="Components" stroke="none" stroke-width="1" fill="none" fill-rule="evenodd">
        <g id="Style-Guide-Copy" transform="translate(-1237.000000, -307.000000)" fill-rule="nonzero">
            <g id="united-states" transform="translate(1237.000000, 307.000000)">
                <path d="M23.5861875,15.7371094 L0.4138125,15.7371094 C0.185296875,15.7371094 0,15.5518125 0,15.3232969 L0,0.42675 C0,0.198234375 0.185296875,0.0129375 0.4138125,0.0129375 L23.5862344,0.0129375 C23.81475,0.0129375 24.0000469,0.198234375 24.0000469,0.42675 L24.0000469,15.3232969 C24.0000469,15.5518594 23.8147031,15.7371094 23.5861875,15.7371094 Z" id="Path" fill="#F5F5F5"></path>
                <g id="Group" fill="#D80027">
                    <path d="M24.0000469,1.22254687 L0,1.22254687 L0,0.42675 C0,0.198234375 0.185296875,0.0129375 0.4138125,0.0129375 L23.5862344,0.0129375 C23.81475,0.0129375 24.0000469,0.198234375 24.0000469,0.42675 L24.0000469,1.22254687 L24.0000469,1.22254687 Z" id="Path"></path>
                    <rect id="Rectangle" x="0" y="4.85114063" width="24" height="1.2095625"></rect>
                    <rect id="Rectangle" x="0" y="2.43192188" width="24" height="1.2095625"></rect>
                    <path d="M24,8.47982813 L0.4138125,8.47982813 C0.185296875,8.47982813 0,8.29453125 0,8.06601563 L0,7.27021875 L24,7.27021875 L24,8.47982813 Z" id="Path"></path>
                    <rect id="Rectangle" x="0" y="12.1087969" width="24" height="1.2095625"></rect>
                    <path d="M23.5861875,15.7371094 L0.4138125,15.7371094 C0.185296875,15.7371094 0,15.5518125 0,15.3232969 L0,14.5275469 L24,14.5275469 L24,15.3233438 C24,15.5518594 23.8147031,15.7371094 23.5861875,15.7371094 Z" id="Path"></path>
                    <rect id="Rectangle" x="0" y="9.68957813" width="24" height="1.2095625"></rect>
                </g>
                <path d="M10.7586094,0.012984375 L0.4138125,0.012984375 C0.185296875,0.012984375 1.36779477e-12,0.198234375 1.36779477e-12,0.42675 L1.36779477e-12,8.06596875 C1.36779477e-12,8.29448438 0.185296875,8.47978125 0.4138125,8.47978125 L10.7586563,8.47978125 C10.9871719,8.47978125 11.1724688,8.29448438 11.1724688,8.06596875 L11.1724688,0.42675 C11.1724688,0.198234375 10.987125,0.012984375 10.7586094,0.012984375 Z" id="Path" fill="#2E52B2"></path>
                <g id="Group" transform="translate(0.656250, 0.890625)" fill="#F5F5F5">
                    <path d="M0.505734375,0.07209375 L0.597328125,0.34678125 L0.886875,0.348984375 C0.924375,0.3493125 0.939890625,0.397125 0.90975,0.419390625 L0.676828125,0.591421875 L0.764203125,0.86746875 C0.775546875,0.9031875 0.7348125,0.9328125 0.704296875,0.91096875 L0.46875,0.742640625 L0.233203125,0.911015625 C0.2026875,0.9328125 0.162046875,0.903234375 0.173296875,0.867515625 L0.260671875,0.59146875 L0.02775,0.4194375 C-0.002390625,0.397125 0.013125,0.349359375 0.050625,0.34903125 L0.340171875,0.346828125 L0.431765625,0.072140625 C0.443578125,0.036515625 0.493828125,0.036515625 0.505734375,0.07209375 Z" id="Path"></path>
                    <path d="M0.505734375,1.509 L0.597328125,1.7836875 L0.886875,1.78589063 C0.924375,1.78621875 0.939890625,1.83403125 0.90975,1.85629688 L0.676828125,2.02832813 L0.764203125,2.304375 C0.775546875,2.34009375 0.7348125,2.36971875 0.704296875,2.347875 L0.46875,2.17954688 L0.233203125,2.34792188 C0.2026875,2.36971875 0.162046875,2.34014063 0.173296875,2.30442188 L0.260671875,2.028375 L0.02775,1.85634375 C-0.002390625,1.83403125 0.013125,1.78626563 0.050625,1.7859375 L0.340171875,1.78373438 L0.431765625,1.50904688 C0.443578125,1.47346875 0.493828125,1.47346875 0.505734375,1.509 Z" id="Path"></path>
                    <path d="M0.505734375,2.94590625 L0.597328125,3.22059375 L0.886875,3.22279687 C0.924375,3.223125 0.939890625,3.2709375 0.90975,3.29320312 L0.676828125,3.46523437 L0.764203125,3.74128125 C0.775546875,3.777 0.7348125,3.806625 0.704296875,3.78478125 L0.46875,3.61645312 L0.233203125,3.78482812 C0.2026875,3.806625 0.162046875,3.77704687 0.173296875,3.74132812 L0.260671875,3.46528125 L0.02775,3.29325 C-0.002390625,3.2709375 0.013125,3.22317187 0.050625,3.22284375 L0.340171875,3.22064062 L0.431765625,2.94595312 C0.443578125,2.910375 0.493828125,2.910375 0.505734375,2.94590625 Z" id="Path"></path>
                    <path d="M0.505734375,4.38285937 L0.597328125,4.65754687 L0.886875,4.65975 C0.924375,4.66007812 0.939890625,4.70789062 0.90975,4.73015625 L0.676828125,4.9021875 L0.764203125,5.17823437 C0.775546875,5.21395312 0.7348125,5.24357812 0.704296875,5.22173437 L0.46875,5.05340625 L0.233203125,5.22178125 C0.2026875,5.24357812 0.162046875,5.214 0.173296875,5.17828125 L0.260671875,4.90223437 L0.02775,4.73020312 C-0.002390625,4.70789062 0.013125,4.660125 0.050625,4.65979687 L0.340171875,4.65759375 L0.431765625,4.38290625 C0.443578125,4.34728125 0.493828125,4.34728125 0.505734375,4.38285937 Z" id="Path"></path>
                    <path d="M0.505734375,5.81976562 L0.597328125,6.09445312 L0.886875,6.09665625 C0.924375,6.09698437 0.939890625,6.14479687 0.90975,6.1670625 L0.676828125,6.33909375 L0.764203125,6.61514062 C0.775546875,6.65085937 0.7348125,6.68048437 0.704296875,6.65864062 L0.46875,6.4903125 L0.233203125,6.6586875 C0.2026875,6.68048437 0.162046875,6.65090625 0.173296875,6.6151875 L0.260671875,6.33914062 L0.02775,6.16710937 C-0.002390625,6.14479687 0.013125,6.09703125 0.050625,6.09670312 L0.340171875,6.0945 L0.431765625,5.8198125 C0.443578125,5.78414062 0.493828125,5.78414062 0.505734375,5.81976562 Z" id="Path"></path>
                    <path d="M1.62103125,0.776578125 L1.712625,1.05126563 L2.00217187,1.05346875 C2.03967187,1.05379688 2.0551875,1.10160938 2.02504687,1.123875 L1.792125,1.29590625 L1.8795,1.57195313 C1.89084375,1.60767188 1.85010937,1.63729688 1.81959375,1.61545313 L1.58404687,1.44707813 L1.3485,1.61545313 C1.31798437,1.63725 1.27734375,1.60767188 1.28859375,1.57195313 L1.37596875,1.29590625 L1.14304687,1.123875 C1.11290625,1.1015625 1.12842187,1.05379688 1.16592187,1.05346875 L1.45546875,1.05126563 L1.5470625,0.776578125 C1.55882812,0.741046875 1.60917187,0.741046875 1.62103125,0.776578125 Z" id="Path"></path>
                    <path d="M1.62103125,2.21353125 L1.712625,2.48821875 L2.00217187,2.49042188 C2.03967187,2.49075 2.0551875,2.5385625 2.02504687,2.56082813 L1.792125,2.73285938 L1.8795,3.00890625 C1.89084375,3.044625 1.85010937,3.07425 1.81959375,3.05240625 L1.58404687,2.88403125 L1.3485,3.05240625 C1.31798437,3.07420313 1.27734375,3.04467188 1.28859375,3.00890625 L1.37596875,2.73285938 L1.14304687,2.56082813 C1.11290625,2.53851563 1.12842187,2.49075 1.16592187,2.49042188 L1.45546875,2.48821875 L1.5470625,2.21353125 C1.55882812,2.17795313 1.60917187,2.17795313 1.62103125,2.21353125 Z" id="Path"></path>
                    <path d="M1.62103125,3.6504375 L1.712625,3.925125 L2.00217187,3.92732812 C2.03967187,3.92765625 2.0551875,3.97546875 2.02504687,3.99773437 L1.792125,4.16976562 L1.8795,4.4458125 C1.89084375,4.48153125 1.85010937,4.51115625 1.81959375,4.4893125 L1.58404687,4.3209375 L1.3485,4.4893125 C1.31798437,4.51110937 1.27734375,4.48153125 1.28859375,4.4458125 L1.37596875,4.16976562 L1.14304687,3.99773437 C1.11290625,3.97542187 1.12842187,3.92765625 1.16592187,3.92732812 L1.45546875,3.925125 L1.5470625,3.6504375 C1.55882812,3.61485937 1.60917187,3.61485937 1.62103125,3.6504375 Z" id="Path"></path>
                    <path d="M1.62103125,5.08734375 L1.712625,5.36203125 L2.00217187,5.36423437 C2.03967187,5.3645625 2.0551875,5.412375 2.02504687,5.43464062 L1.792125,5.60667187 L1.8795,5.88271875 C1.89084375,5.9184375 1.85010937,5.9480625 1.81959375,5.92621875 L1.58404687,5.75784375 L1.3485,5.92621875 C1.31798437,5.94801562 1.27734375,5.9184375 1.28859375,5.88271875 L1.37596875,5.60667187 L1.14304687,5.43464062 C1.11290625,5.41232812 1.12842187,5.3645625 1.16592187,5.36423437 L1.45546875,5.36203125 L1.5470625,5.08734375 C1.55882812,5.0518125 1.60917187,5.0518125 1.62103125,5.08734375 Z" id="Path"></path>
                    <path d="M2.73632812,0.07209375 L2.82792187,0.34678125 L3.11746875,0.348984375 C3.15496875,0.3493125 3.17048437,0.397125 3.14034375,0.419390625 L2.90742187,0.591421875 L2.99479687,0.86746875 C3.00614062,0.9031875 2.96540625,0.9328125 2.93489062,0.91096875 L2.69934375,0.74259375 L2.46379687,0.91096875 C2.43328125,0.932765625 2.39264062,0.9031875 2.40389062,0.86746875 L2.49126562,0.591421875 L2.25834375,0.419390625 C2.22820312,0.397078125 2.24371875,0.3493125 2.28121875,0.348984375 L2.57076562,0.34678125 L2.66235937,0.07209375 C2.67417187,0.036515625 2.72446875,0.036515625 2.73632812,0.07209375 Z" id="Path"></path>
                    <path d="M2.73632812,1.509 L2.82792187,1.7836875 L3.11746875,1.78589063 C3.15496875,1.78621875 3.17048437,1.83403125 3.14034375,1.85629688 L2.90742187,2.02832813 L2.99479687,2.304375 C3.00614062,2.34009375 2.96540625,2.36971875 2.93489062,2.347875 L2.69934375,2.1795 L2.46379687,2.347875 C2.43328125,2.36967188 2.39264062,2.34009375 2.40389062,2.304375 L2.49126562,2.02832813 L2.25834375,1.85629688 C2.22820312,1.83398438 2.24371875,1.78621875 2.28121875,1.78589063 L2.57076562,1.7836875 L2.66235937,1.509 C2.67417187,1.47346875 2.72446875,1.47346875 2.73632812,1.509 Z" id="Path"></path>
                    <path d="M2.73632812,2.94590625 L2.82792187,3.22059375 L3.11746875,3.22279687 C3.15496875,3.223125 3.17048437,3.2709375 3.14034375,3.29320312 L2.90742187,3.46523437 L2.99479687,3.74128125 C3.00614062,3.777 2.96540625,3.806625 2.93489062,3.78478125 L2.69934375,3.61640625 L2.46379687,3.78478125 C2.43328125,3.80657812 2.39264062,3.777 2.40389062,3.74128125 L2.49126562,3.46523437 L2.25834375,3.29320312 C2.22820312,3.27089062 2.24371875,3.223125 2.28121875,3.22279687 L2.57076562,3.22059375 L2.66235937,2.94590625 C2.67417187,2.910375 2.72446875,2.910375 2.73632812,2.94590625 Z" id="Path"></path>
                    <path d="M2.73632812,4.38285937 L2.82792187,4.65754687 L3.11746875,4.65975 C3.15496875,4.66007812 3.17048437,4.70789062 3.14034375,4.73015625 L2.90742187,4.9021875 L2.99479687,5.17823437 C3.00614062,5.21395312 2.96540625,5.24357812 2.93489062,5.22173437 L2.69934375,5.05335937 L2.46379687,5.22173437 C2.43328125,5.24353125 2.39264062,5.21395312 2.40389062,5.17823437 L2.49126562,4.9021875 L2.25834375,4.73015625 C2.22820312,4.70784375 2.24371875,4.66007812 2.28121875,4.65975 L2.57076562,4.65754687 L2.66235937,4.38285937 C2.67417187,4.34728125 2.72446875,4.34728125 2.73632812,4.38285937 Z" id="Path"></path>
                    <path d="M2.73632812,5.81976562 L2.82792187,6.09445312 L3.11746875,6.09665625 C3.15496875,6.09698437 3.17048437,6.14479687 3.14034375,6.1670625 L2.90742187,6.33909375 L2.99479687,6.61514062 C3.00614062,6.65085937 2.96540625,6.68048437 2.93489062,6.65864062 L2.69934375,6.49026562 L2.46379687,6.65864062 C2.43328125,6.6804375 2.39264062,6.65085937 2.40389062,6.61514062 L2.49126562,6.33909375 L2.25834375,6.1670625 C2.22820312,6.14475 2.24371875,6.09698437 2.28121875,6.09665625 L2.57076562,6.09445312 L2.66235937,5.81976562 C2.67417187,5.78414062 2.72446875,5.78414062 2.73632812,5.81976562 Z" id="Path"></path>
                    <path d="M3.85167187,0.776578125 L3.94326562,1.05126563 L4.2328125,1.05346875 C4.2703125,1.05379688 4.28582812,1.10160938 4.2556875,1.123875 L4.02276562,1.29590625 L4.11014062,1.57195313 C4.12148437,1.60767188 4.08075,1.63729688 4.05023437,1.61545313 L3.8146875,1.44707813 L3.57914062,1.61545313 C3.548625,1.63725 3.50798437,1.60767188 3.51923437,1.57195313 L3.60660937,1.29590625 L3.3736875,1.123875 C3.34354687,1.1015625 3.3590625,1.05379688 3.3965625,1.05346875 L3.68610937,1.05126563 L3.77770312,0.776578125 C3.78946875,0.741046875 3.8398125,0.741046875 3.85167187,0.776578125 Z" id="Path"></path>
                    <path d="M3.85167187,2.21353125 L3.94326562,2.48821875 L4.2328125,2.49042188 C4.2703125,2.49075 4.28582812,2.5385625 4.2556875,2.56082813 L4.02276562,2.73285938 L4.11014062,3.00890625 C4.12148437,3.044625 4.08075,3.07425 4.05023437,3.05240625 L3.8146875,2.88403125 L3.57914062,3.05240625 C3.548625,3.07420313 3.50798437,3.04467188 3.51923437,3.00890625 L3.60660937,2.73285938 L3.3736875,2.56082813 C3.34354687,2.53851563 3.3590625,2.49075 3.3965625,2.49042188 L3.68610937,2.48821875 L3.77770312,2.21353125 C3.78946875,2.17795313 3.8398125,2.17795313 3.85167187,2.21353125 Z" id="Path"></path>
                    <path d="M3.85167187,3.6504375 L3.94326562,3.925125 L4.2328125,3.92732812 C4.2703125,3.92765625 4.28582812,3.97546875 4.2556875,3.99773437 L4.02276562,4.16976562 L4.11014062,4.4458125 C4.12148437,4.48153125 4.08075,4.51115625 4.05023437,4.4893125 L3.8146875,4.3209375 L3.57914062,4.4893125 C3.548625,4.51110937 3.50798437,4.48153125 3.51923437,4.4458125 L3.60660937,4.16976562 L3.3736875,3.99773437 C3.34354687,3.97542187 3.3590625,3.92765625 3.3965625,3.92732812 L3.68610937,3.925125 L3.77770312,3.6504375 C3.78946875,3.61485937 3.8398125,3.61485937 3.85167187,3.6504375 Z" id="Path"></path>
                    <path d="M3.85167187,5.08734375 L3.94326562,5.36203125 L4.2328125,5.36423437 C4.2703125,5.3645625 4.28582812,5.412375 4.2556875,5.43464062 L4.02276562,5.60667187 L4.11014062,5.88271875 C4.12148437,5.9184375 4.08075,5.9480625 4.05023437,5.92621875 L3.8146875,5.75784375 L3.57914062,5.92621875 C3.548625,5.94801562 3.50798437,5.9184375 3.51923437,5.88271875 L3.60660937,5.60667187 L3.3736875,5.43464062 C3.34354687,5.41232812 3.3590625,5.3645625 3.3965625,5.36423437 L3.68610937,5.36203125 L3.77770312,5.08734375 C3.78946875,5.0518125 3.8398125,5.0518125 3.85167187,5.08734375 Z" id="Path"></path>
                    <path d="M4.96696875,0.07209375 L5.0585625,0.34678125 L5.34810938,0.348984375 C5.38560938,0.3493125 5.401125,0.397125 5.37098438,0.419390625 L5.1380625,0.591421875 L5.2254375,0.86746875 C5.23678125,0.9031875 5.19604688,0.9328125 5.16553125,0.91096875 L4.9299375,0.74259375 L4.69439063,0.91096875 C4.663875,0.932765625 4.62323438,0.9031875 4.63448438,0.86746875 L4.72185938,0.591421875 L4.4889375,0.419390625 C4.45879688,0.397078125 4.4743125,0.3493125 4.5118125,0.348984375 L4.80135938,0.34678125 L4.89295313,0.07209375 C4.9048125,0.036515625 4.95510938,0.036515625 4.96696875,0.07209375 Z" id="Path"></path>
                    <path d="M4.96696875,1.509 L5.0585625,1.7836875 L5.34810938,1.78589063 C5.38560938,1.78621875 5.401125,1.83403125 5.37098438,1.85629688 L5.1380625,2.02832813 L5.2254375,2.304375 C5.23678125,2.34009375 5.19604688,2.36971875 5.16553125,2.347875 L4.9299375,2.1795 L4.69439063,2.347875 C4.663875,2.36967188 4.62323438,2.34009375 4.63448438,2.304375 L4.72185938,2.02832813 L4.4889375,1.85629688 C4.45879688,1.83398438 4.4743125,1.78621875 4.5118125,1.78589063 L4.80135938,1.7836875 L4.89295313,1.509 C4.9048125,1.47346875 4.95510938,1.47346875 4.96696875,1.509 Z" id="Path"></path>
                    <path d="M4.96696875,2.94590625 L5.0585625,3.22059375 L5.34810938,3.22279687 C5.38560938,3.223125 5.401125,3.2709375 5.37098438,3.29320312 L5.1380625,3.46523437 L5.2254375,3.74128125 C5.23678125,3.777 5.19604688,3.806625 5.16553125,3.78478125 L4.9299375,3.61640625 L4.69439063,3.78478125 C4.663875,3.80657812 4.62323438,3.777 4.63448438,3.74128125 L4.72185938,3.46523437 L4.4889375,3.29320312 C4.45879688,3.27089062 4.4743125,3.223125 4.5118125,3.22279687 L4.80135938,3.22059375 L4.89295313,2.94590625 C4.9048125,2.910375 4.95510938,2.910375 4.96696875,2.94590625 Z" id="Path"></path>
                    <path d="M4.96696875,4.38285937 L5.0585625,4.65754687 L5.34810938,4.65975 C5.38560938,4.66007812 5.401125,4.70789062 5.37098438,4.73015625 L5.1380625,4.9021875 L5.2254375,5.17823437 C5.23678125,5.21395312 5.19604688,5.24357812 5.16553125,5.22173437 L4.9299375,5.05335937 L4.69439063,5.22173437 C4.663875,5.24353125 4.62323438,5.21395312 4.63448438,5.17823437 L4.72185938,4.9021875 L4.4889375,4.73015625 C4.45879688,4.70784375 4.4743125,4.66007812 4.5118125,4.65975 L4.80135938,4.65754687 L4.89295313,4.38285937 C4.9048125,4.34728125 4.95510938,4.34728125 4.96696875,4.38285937 Z" id="Path"></path>
                    <path d="M4.96696875,5.81976562 L5.0585625,6.09445312 L5.34810938,6.09665625 C5.38560938,6.09698437 5.401125,6.14479687 5.37098438,6.1670625 L5.1380625,6.33909375 L5.2254375,6.61514062 C5.23678125,6.65085937 5.19604688,6.68048437 5.16553125,6.65864062 L4.9299375,6.49026562 L4.69439063,6.65864062 C4.663875,6.6804375 4.62323438,6.65085937 4.63448438,6.61514062 L4.72185938,6.33909375 L4.4889375,6.1670625 C4.45879688,6.14475 4.4743125,6.09698437 4.5118125,6.09665625 L4.80135938,6.09445312 L4.89295313,5.81976562 C4.9048125,5.78414062 4.95510938,5.78414062 4.96696875,5.81976562 Z" id="Path"></path>
                    <path d="M6.08226563,0.776578125 L6.17385938,1.05126563 L6.46340625,1.05346875 C6.50090625,1.05379688 6.51642188,1.10160938 6.48628125,1.123875 L6.25335938,1.29590625 L6.34073438,1.57195313 C6.35207813,1.60767188 6.31134375,1.63729688 6.28082813,1.61545313 L6.04528125,1.44707813 L5.80973438,1.61545313 C5.77921875,1.63725 5.73857813,1.60767188 5.74982813,1.57195313 L5.83720313,1.29590625 L5.60428125,1.123875 C5.57414063,1.1015625 5.58965625,1.05379688 5.62715625,1.05346875 L5.91670313,1.05126563 L6.00829688,0.776578125 C6.02015625,0.741046875 6.07040625,0.741046875 6.08226563,0.776578125 Z" id="Path"></path>
                    <path d="M6.08226563,2.21353125 L6.17385938,2.48821875 L6.46340625,2.49042188 C6.50090625,2.49075 6.51642188,2.5385625 6.48628125,2.56082813 L6.25335938,2.73285938 L6.34073438,3.00890625 C6.35207813,3.044625 6.31134375,3.07425 6.28082813,3.05240625 L6.04528125,2.88403125 L5.80973438,3.05240625 C5.77921875,3.07420313 5.73857813,3.04467188 5.74982813,3.00890625 L5.83720313,2.73285938 L5.60428125,2.56082813 C5.57414063,2.53851563 5.58965625,2.49075 5.62715625,2.49042188 L5.91670313,2.48821875 L6.00829688,2.21353125 C6.02015625,2.17795313 6.07040625,2.17795313 6.08226563,2.21353125 Z" id="Path"></path>
                    <path d="M6.08226563,3.6504375 L6.17385938,3.925125 L6.46340625,3.92732812 C6.50090625,3.92765625 6.51642188,3.97546875 6.48628125,3.99773437 L6.25335938,4.16976562 L6.34073438,4.4458125 C6.35207813,4.48153125 6.31134375,4.51115625 6.28082813,4.4893125 L6.04528125,4.3209375 L5.80973438,4.4893125 C5.77921875,4.51110937 5.73857813,4.48153125 5.74982813,4.4458125 L5.83720313,4.16976562 L5.60428125,3.99773437 C5.57414063,3.97542187 5.58965625,3.92765625 5.62715625,3.92732812 L5.91670313,3.925125 L6.00829688,3.6504375 C6.02015625,3.61485937 6.07040625,3.61485937 6.08226563,3.6504375 Z" id="Path"></path>
                    <path d="M6.08226563,5.08734375 L6.17385938,5.36203125 L6.46340625,5.36423437 C6.50090625,5.3645625 6.51642188,5.412375 6.48628125,5.43464062 L6.25335938,5.60667187 L6.34073438,5.88271875 C6.35207813,5.9184375 6.31134375,5.9480625 6.28082813,5.92621875 L6.04528125,5.75784375 L5.80973438,5.92621875 C5.77921875,5.94801562 5.73857813,5.9184375 5.74982813,5.88271875 L5.83720313,5.60667187 L5.60428125,5.43464062 C5.57414063,5.41232812 5.58965625,5.3645625 5.62715625,5.36423437 L5.91670313,5.36203125 L6.00829688,5.08734375 C6.02015625,5.0518125 6.07040625,5.0518125 6.08226563,5.08734375 Z" id="Path"></path>
                    <path d="M7.19760938,0.07209375 L7.28920313,0.34678125 L7.57875,0.348984375 C7.61625,0.3493125 7.63176563,0.397125 7.601625,0.419390625 L7.36870313,0.591421875 L7.45607813,0.86746875 C7.46742188,0.9031875 7.4266875,0.9328125 7.39617188,0.91096875 L7.160625,0.74259375 L6.92507813,0.91096875 C6.8945625,0.932765625 6.85392188,0.9031875 6.86517188,0.86746875 L6.95254688,0.591421875 L6.719625,0.419390625 C6.68948438,0.397078125 6.705,0.3493125 6.7425,0.348984375 L7.03204688,0.34678125 L7.12364063,0.07209375 C7.13540625,0.036515625 7.18575,0.036515625 7.19760938,0.07209375 Z" id="Path"></path>
                    <path d="M7.19760938,1.509 L7.28920313,1.7836875 L7.57875,1.78589063 C7.61625,1.78621875 7.63176563,1.83403125 7.601625,1.85629688 L7.36870313,2.02832813 L7.45607813,2.304375 C7.46742188,2.34009375 7.4266875,2.36971875 7.39617188,2.347875 L7.160625,2.1795 L6.92507813,2.347875 C6.8945625,2.36967188 6.85392188,2.34009375 6.86517188,2.304375 L6.95254688,2.02832813 L6.719625,1.85629688 C6.68948438,1.83398438 6.705,1.78621875 6.7425,1.78589063 L7.03204688,1.7836875 L7.12364063,1.509 C7.13540625,1.47346875 7.18575,1.47346875 7.19760938,1.509 Z" id="Path"></path>
                    <path d="M7.19760938,2.94590625 L7.28920313,3.22059375 L7.57875,3.22279687 C7.61625,3.223125 7.63176563,3.2709375 7.601625,3.29320312 L7.36870313,3.46523437 L7.45607813,3.74128125 C7.46742188,3.777 7.4266875,3.806625 7.39617188,3.78478125 L7.160625,3.61640625 L6.92507813,3.78478125 C6.8945625,3.80657812 6.85392188,3.777 6.86517188,3.74128125 L6.95254688,3.46523437 L6.719625,3.29320312 C6.68948438,3.27089062 6.705,3.223125 6.7425,3.22279687 L7.03204688,3.22059375 L7.12364063,2.94590625 C7.13540625,2.910375 7.18575,2.910375 7.19760938,2.94590625 Z" id="Path"></path>
                    <path d="M7.19760938,4.38285937 L7.28920313,4.65754687 L7.57875,4.65975 C7.61625,4.66007812 7.63176563,4.70789062 7.601625,4.73015625 L7.36870313,4.9021875 L7.45607813,5.17823437 C7.46742188,5.21395312 7.4266875,5.24357812 7.39617188,5.22173437 L7.160625,5.05335937 L6.92507813,5.22173437 C6.8945625,5.24353125 6.85392188,5.21395312 6.86517188,5.17823437 L6.95254688,4.9021875 L6.719625,4.73015625 C6.68948438,4.70784375 6.705,4.66007812 6.7425,4.65975 L7.03204688,4.65754687 L7.12364063,4.38285937 C7.13540625,4.34728125 7.18575,4.34728125 7.19760938,4.38285937 Z" id="Path"></path>
                    <path d="M7.19760938,5.81976562 L7.28920313,6.09445312 L7.57875,6.09665625 C7.61625,6.09698437 7.63176563,6.14479687 7.601625,6.1670625 L7.36870313,6.33909375 L7.45607813,6.61514062 C7.46742188,6.65085937 7.4266875,6.68048437 7.39617188,6.65864062 L7.160625,6.49026562 L6.92507813,6.65864062 C6.8945625,6.6804375 6.85392188,6.65085937 6.86517188,6.61514062 L6.95254688,6.33909375 L6.719625,6.1670625 C6.68948438,6.14475 6.705,6.09698437 6.7425,6.09665625 L7.03204688,6.09445312 L7.12364063,5.81976562 C7.13540625,5.78414062 7.18575,5.78414062 7.19760938,5.81976562 Z" id="Path"></path>
                    <path d="M8.31290625,0.776578125 L8.4045,1.05126563 L8.69404687,1.05346875 C8.73154687,1.05379688 8.7470625,1.10160938 8.71692187,1.123875 L8.484,1.29590625 L8.571375,1.57195313 C8.58271875,1.60767188 8.54198437,1.63729688 8.51146875,1.61545313 L8.27592187,1.44707813 L8.040375,1.61545313 C8.00985937,1.63725 7.96921875,1.60767188 7.98046875,1.57195313 L8.06784375,1.29590625 L7.83492187,1.123875 C7.80478125,1.1015625 7.82029687,1.05379688 7.85779687,1.05346875 L8.14734375,1.05126563 L8.2389375,0.776578125 C8.25075,0.741046875 8.30109375,0.741046875 8.31290625,0.776578125 Z" id="Path"></path>
                    <path d="M8.31290625,2.21353125 L8.4045,2.48821875 L8.69404687,2.49042188 C8.73154687,2.49075 8.7470625,2.5385625 8.71692187,2.56082813 L8.484,2.73285938 L8.571375,3.00890625 C8.58271875,3.044625 8.54198437,3.07425 8.51146875,3.05240625 L8.27592187,2.88403125 L8.040375,3.05240625 C8.00985937,3.07420313 7.96921875,3.04467188 7.98046875,3.00890625 L8.06784375,2.73285938 L7.83492187,2.56082813 C7.80478125,2.53851563 7.82029687,2.49075 7.85779687,2.49042188 L8.14734375,2.48821875 L8.2389375,2.21353125 C8.25075,2.17795313 8.30109375,2.17795313 8.31290625,2.21353125 Z" id="Path"></path>
                    <path d="M8.31290625,3.6504375 L8.4045,3.925125 L8.69404687,3.92732812 C8.73154687,3.92765625 8.7470625,3.97546875 8.71692187,3.99773437 L8.484,4.16976562 L8.571375,4.4458125 C8.58271875,4.48153125 8.54198437,4.51115625 8.51146875,4.4893125 L8.27592187,4.3209375 L8.040375,4.4893125 C8.00985937,4.51110937 7.96921875,4.48153125 7.98046875,4.4458125 L8.06784375,4.16976562 L7.83492187,3.99773437 C7.80478125,3.97542187 7.82029687,3.92765625 7.85779687,3.92732812 L8.14734375,3.925125 L8.2389375,3.6504375 C8.25075,3.61485937 8.30109375,3.61485937 8.31290625,3.6504375 Z" id="Path"></path>
                    <path d="M8.31290625,5.08734375 L8.4045,5.36203125 L8.69404687,5.36423437 C8.73154687,5.3645625 8.7470625,5.412375 8.71692187,5.43464062 L8.484,5.60667187 L8.571375,5.88271875 C8.58271875,5.9184375 8.54198437,5.9480625 8.51146875,5.92621875 L8.27592187,5.75784375 L8.040375,5.92621875 C8.00985937,5.94801562 7.96921875,5.9184375 7.98046875,5.88271875 L8.06784375,5.60667187 L7.83492187,5.43464062 C7.80478125,5.41232812 7.82029687,5.3645625 7.85779687,5.36423437 L8.14734375,5.36203125 L8.2389375,5.08734375 C8.25075,5.0518125 8.30109375,5.0518125 8.31290625,5.08734375 Z" id="Path"></path>
                    <path d="M9.42825,0.07209375 L9.51984375,0.34678125 L9.80939062,0.348984375 C9.84689062,0.3493125 9.86240625,0.397125 9.83226562,0.419390625 L9.59934375,0.591421875 L9.68671875,0.86746875 C9.6980625,0.9031875 9.65732812,0.9328125 9.6268125,0.91096875 L9.39126562,0.74259375 L9.15571875,0.91096875 C9.12520312,0.932765625 9.0845625,0.9031875 9.0958125,0.86746875 L9.1831875,0.591421875 L8.95026562,0.419390625 C8.920125,0.397078125 8.93564062,0.3493125 8.97314062,0.348984375 L9.2626875,0.34678125 L9.35428125,0.07209375 C9.36609375,0.036515625 9.41634375,0.036515625 9.42825,0.07209375 Z" id="Path"></path>
                    <path d="M9.42825,1.509 L9.51984375,1.7836875 L9.80939062,1.78589063 C9.84689062,1.78621875 9.86240625,1.83403125 9.83226562,1.85629688 L9.59934375,2.02832813 L9.68671875,2.304375 C9.6980625,2.34009375 9.65732812,2.36971875 9.6268125,2.347875 L9.39126562,2.1795 L9.15571875,2.347875 C9.12520312,2.36967188 9.0845625,2.34009375 9.0958125,2.304375 L9.1831875,2.02832813 L8.95026562,1.85629688 C8.920125,1.83398438 8.93564062,1.78621875 8.97314062,1.78589063 L9.2626875,1.7836875 L9.35428125,1.509 C9.36609375,1.47346875 9.41634375,1.47346875 9.42825,1.509 Z" id="Path"></path>
                    <path d="M9.42825,2.94590625 L9.51984375,3.22059375 L9.80939062,3.22279687 C9.84689062,3.223125 9.86240625,3.2709375 9.83226562,3.29320312 L9.59934375,3.46523437 L9.68671875,3.74128125 C9.6980625,3.777 9.65732812,3.806625 9.6268125,3.78478125 L9.39126562,3.61640625 L9.15571875,3.78478125 C9.12520312,3.80657812 9.0845625,3.777 9.0958125,3.74128125 L9.1831875,3.46523437 L8.95026562,3.29320312 C8.920125,3.27089062 8.93564062,3.223125 8.97314062,3.22279687 L9.2626875,3.22059375 L9.35428125,2.94590625 C9.36609375,2.910375 9.41634375,2.910375 9.42825,2.94590625 Z" id="Path"></path>
                    <path d="M9.42825,4.38285937 L9.51984375,4.65754687 L9.80939062,4.65975 C9.84689062,4.66007812 9.86240625,4.70789062 9.83226562,4.73015625 L9.59934375,4.9021875 L9.68671875,5.17823437 C9.6980625,5.21395312 9.65732812,5.24357812 9.6268125,5.22173437 L9.39126562,5.05335937 L9.15571875,5.22173437 C9.12520312,5.24353125 9.0845625,5.21395312 9.0958125,5.17823437 L9.1831875,4.9021875 L8.95026562,4.73015625 C8.920125,4.70784375 8.93564062,4.66007812 8.97314062,4.65975 L9.2626875,4.65754687 L9.35428125,4.38285937 C9.36609375,4.34728125 9.41634375,4.34728125 9.42825,4.38285937 Z" id="Path"></path>
                    <path d="M9.42825,5.81976562 L9.51984375,6.09445312 L9.80939062,6.09665625 C9.84689062,6.09698437 9.86240625,6.14479687 9.83226562,6.1670625 L9.59934375,6.33909375 L9.68671875,6.61514062 C9.6980625,6.65085937 9.65732812,6.68048437 9.6268125,6.65864062 L9.39126562,6.49026562 L9.15571875,6.65864062 C9.12520312,6.6804375 9.0845625,6.65085937 9.0958125,6.61514062 L9.1831875,6.33909375 L8.95026562,6.1670625 C8.920125,6.14475 8.93564062,6.09698437 8.97314062,6.09665625 L9.2626875,6.09445312 L9.35428125,5.81976562 C9.36609375,5.78414062 9.41634375,5.78414062 9.42825,5.81976562 Z" id="Path"></path>
                </g>
            </g>
        </g>
    </g>
</svg>